<?xml version="1.0" encoding="UTF-8"?>
<!DOCTYPE svg PUBLIC "-//W3C//DTD SVG 1.1//EN" "http://www.w3.org/Graphics/SVG/1.1/DTD/svg11.dtd">
<svg xmlns="http://www.w3.org/2000/svg" version="1.1" width="1500px" height="1500px" style="shape-rendering:geometricPrecision; text-rendering:geometricPrecision; image-rendering:optimizeQuality; fill-rule:evenodd; clip-rule:evenodd" xmlns:xlink="http://www.w3.org/1999/xlink">
<g><path style="opacity:1" fill="#fefefe" d="M -0.5,-0.5 C 499.5,-0.5 999.5,-0.5 1499.5,-0.5C 1499.5,499.5 1499.5,999.5 1499.5,1499.5C 999.5,1499.5 499.5,1499.5 -0.5,1499.5C -0.5,1295.17 -0.5,1090.83 -0.5,886.5C 31.6179,909.743 65.6179,930.243 101.5,948C 212.833,1000.18 322.833,997.681 431.5,940.5C 506.644,943.976 578.978,931.476 648.5,903C 705.014,878.578 760.68,852.244 815.5,824C 866.69,798.603 920.023,778.936 975.5,765C 995.319,760.586 1015.32,757.252 1035.5,755C 1093.17,754.5 1150.83,754.333 1208.5,754.5C 1208.5,751.833 1208.5,749.167 1208.5,746.5C 1142.49,746.214 1076.49,746.547 1010.5,747.5C 968.1,747.443 926.767,740.776 886.5,727.5C 887.274,726.853 888.274,726.52 889.5,726.5C 898.173,728.003 906.839,729.169 915.5,730C 901.32,726.53 886.986,724.03 872.5,722.5C 843.78,713.203 815.78,702.036 788.5,689C 742.99,665.411 697.323,642.078 651.5,619C 607.677,597.503 562.01,581.17 514.5,570C 503.563,567.985 492.563,566.485 481.5,565.5C 463.698,563.76 445.698,563.093 427.5,563.5C 385.025,564.443 344.359,568.609 305.5,576C 306.416,576.278 307.082,576.778 307.5,577.5C 305.658,577.277 303.825,576.943 302,576.5C 279.432,580.934 256.932,585.601 234.5,590.5C 159.533,524.123 97.7001,447.456 49,360.5C 40.412,344.992 32.0787,329.325 24,313.5C 15.7153,296.107 7.54861,278.773 -0.5,261.5C -0.5,174.167 -0.5,86.8333 -0.5,-0.5 Z"/></g>
<g><path style="opacity:1" fill="#fafbfd" d="M -0.5,265.5 C 48.7067,379.451 117.373,479.951 205.5,567C 215.202,576.37 225.202,585.37 235.5,594C 232.5,594.667 229.5,594.667 226.5,594C 144.189,520.046 77.3557,434.212 26,336.5C 17.1207,318.741 8.28739,301.075 -0.5,283.5C -0.5,277.5 -0.5,271.5 -0.5,265.5 Z"/></g>
<g><path style="opacity:1" fill="#fafbfd" d="M -0.5,287.5 C 53.3565,405.022 128.023,507.356 223.5,594.5C 220.833,594.5 218.167,594.5 215.5,594.5C 136.487,523.346 71.9874,441.013 22,347.5C 14.1995,332.897 6.69945,318.231 -0.5,303.5C -0.5,298.167 -0.5,292.833 -0.5,287.5 Z"/></g>
<g><path style="opacity:1" fill="#fafbfd" d="M -0.5,307.5 C 51.7535,416.975 122.753,512.641 212.5,594.5C 209.833,594.5 207.167,594.5 204.5,594.5C 163.604,558.444 126.771,518.777 94,475.5C 58.217,427.623 26.717,376.956 -0.5,323.5C -0.5,318.167 -0.5,312.833 -0.5,307.5 Z"/></g>
<g><path style="opacity:1" fill="#f9fbfd" d="M -0.5,327.5 C 50.5572,428.097 117.557,516.931 200.5,594C 197.5,594.667 194.5,594.667 191.5,594C 135.885,543.086 87.7184,486.253 47,423.5C 30.3849,397.265 14.5516,370.599 -0.5,343.5C -0.5,338.167 -0.5,332.833 -0.5,327.5 Z"/></g>
<g><path style="opacity:1" fill="#fafbfd" d="M -0.5,346.5 C 49.0585,439.762 112.392,522.762 189.5,595.5C 188.5,595.5 187.5,595.5 186.5,595.5C 184.473,595.662 182.473,595.495 180.5,595C 107.747,526.46 47.4137,448.627 -0.5,361.5C -0.5,356.5 -0.5,351.5 -0.5,346.5 Z"/></g>
<g><path style="opacity:1" fill="#fafbfd" d="M -0.5,365.5 C 47.3079,451.684 107.308,528.684 179.5,596.5C 177.5,596.5 175.5,596.5 173.5,596.5C 172.448,596.649 171.448,596.483 170.5,596C 123.47,552.638 81.9704,504.805 46,452.5C 29.9762,428.441 14.4762,404.107 -0.5,379.5C -0.5,374.833 -0.5,370.167 -0.5,365.5 Z"/></g>
<g><path style="opacity:1" fill="#fafbfd" d="M -0.5,382.5 C 45.472,462.003 101.805,533.669 168.5,597.5C 166.833,597.5 165.167,597.5 163.5,597.5C 161.692,597.509 160.025,597.009 158.5,596C 96.1293,536.518 43.1293,470.018 -0.5,396.5C -0.5,391.833 -0.5,387.167 -0.5,382.5 Z"/></g>
<g><path style="opacity:1" fill="#fafbfd" d="M -0.5,399.5 C 43.1362,472.987 96.1362,539.321 158.5,598.5C 156.097,598.448 153.764,598.781 151.5,599.5C 107.747,559.262 68.9132,514.928 35,466.5C 23.1434,448.768 11.3101,431.101 -0.5,413.5C -0.5,408.833 -0.5,404.167 -0.5,399.5 Z"/></g>
<g><path style="opacity:1" fill="#fafbfd" d="M -0.5,416.5 C 41.0381,483.581 90.7048,544.414 148.5,599C 147.584,599.278 146.918,599.778 146.5,600.5C 145.5,600.5 144.5,600.5 143.5,600.5C 140.86,600.046 138.527,598.879 136.5,597C 84.4752,545.965 38.8085,490.131 -0.5,429.5C -0.5,425.167 -0.5,420.833 -0.5,416.5 Z"/></g>
<g><path style="opacity:1" fill="#fafbfd" d="M -0.5,432.5 C 39.3715,493.762 85.7048,550.095 138.5,601.5C 136.621,602.341 134.621,602.675 132.5,602.5C 107.458,580.292 84.2913,556.292 63,530.5C 40.43,503.113 19.2634,474.78 -0.5,445.5C -0.5,441.167 -0.5,436.833 -0.5,432.5 Z"/></g>
<g><path style="opacity:1" fill="#f9fbfd" d="M -0.5,448.5 C 36.8953,504.833 80.2286,556.5 129.5,603.5C 127.565,604.15 125.565,604.483 123.5,604.5C 113.626,597.134 104.459,588.801 96,579.5C 60.5591,542.253 28.3925,502.586 -0.5,460.5C -0.5,456.5 -0.5,452.5 -0.5,448.5 Z"/></g>
<g><path style="opacity:1" fill="#fafbfd" d="M -0.5,463.5 C 34.3811,514.585 74.3811,561.752 119.5,605C 118.584,605.278 117.918,605.778 117.5,606.5C 116.5,606.5 115.5,606.5 114.5,606.5C 113.448,606.649 112.448,606.483 111.5,606C 70.0061,565.688 32.6727,522.188 -0.5,475.5C -0.5,471.5 -0.5,467.5 -0.5,463.5 Z"/></g>
<g><path style="opacity:1" fill="#fefefe" d="M -0.5,478.5 C 32.2084,524.732 69.2084,567.566 110.5,607C 109.944,607.383 109.611,607.883 109.5,608.5C 70.6003,619.127 33.9336,634.794 -0.5,655.5C -0.5,596.5 -0.5,537.5 -0.5,478.5 Z"/></g>
<g><path style="opacity:1" fill="#4d84c3" d="M 481.5,565.5 C 492.563,566.485 503.563,567.985 514.5,570C 562.01,581.17 607.677,597.503 651.5,619C 697.323,642.078 742.99,665.411 788.5,689C 815.78,702.036 843.78,713.203 872.5,722.5C 876.94,724.538 881.607,726.204 886.5,727.5C 926.767,740.776 968.1,747.443 1010.5,747.5C 1002.68,749.149 994.683,750.482 986.5,751.5C 943.831,747.331 902.164,738.331 861.5,724.5C 858.061,722.796 854.395,721.462 850.5,720.5C 848.208,718.733 845.542,717.733 842.5,717.5C 825.355,710.6 808.355,703.1 791.5,695C 759.675,678.588 728.009,661.922 696.5,645C 658.131,624.313 618.464,606.647 577.5,592C 506.936,569.182 435.603,566.515 363.5,584C 342.485,588.783 321.818,594.783 301.5,602C 302.056,602.383 302.389,602.883 302.5,603.5C 300.302,603.125 298.302,602.458 296.5,601.5C 326.965,591.785 357.631,583.118 388.5,575.5C 402.931,573.001 417.265,570.668 431.5,568.5C 433.51,567.35 436.176,566.517 439.5,566C 453.496,565.5 467.496,565.333 481.5,565.5 Z"/></g>
<g><path style="opacity:1" fill="#a6c2e1" d="M 427.5,563.5 C 445.698,563.093 463.698,563.76 481.5,565.5C 467.496,565.333 453.496,565.5 439.5,566C 436.176,566.517 433.51,567.35 431.5,568.5C 427.107,568.543 426.774,568.043 430.5,567C 427.563,566.639 424.73,567.139 422,568.5C 416.466,567.506 411.3,568.506 406.5,571.5C 405.095,571.24 403.762,570.907 402.5,570.5C 402.938,570.565 403.272,570.399 403.5,570C 402.328,569.581 401.328,568.915 400.5,568C 402.377,567.424 404.211,567.591 406,568.5C 407.762,568.056 407.595,567.556 405.5,567C 407.377,566.424 409.211,566.591 411,567.5C 412.762,567.056 412.595,566.556 410.5,566C 411.5,565.667 412.5,565.333 413.5,565C 418.351,564.826 423.018,564.326 427.5,563.5 Z"/></g>
<g><path style="opacity:1" fill="#83a9d5" d="M 431.5,568.5 C 417.265,570.668 402.931,573.001 388.5,575.5C 391.428,574.622 394.262,573.289 397,571.5C 398.579,572.8 399.745,572.466 400.5,570.5C 401.167,570.5 401.833,570.5 402.5,570.5C 403.762,570.907 405.095,571.24 406.5,571.5C 411.3,568.506 416.466,567.506 422,568.5C 424.73,567.139 427.563,566.639 430.5,567C 426.774,568.043 427.107,568.543 431.5,568.5 Z"/></g>
<g><path style="opacity:1" fill="#fefefe" d="M 842.5,717.5 C 769.177,703.225 696.511,705.892 624.5,725.5C 576.472,704.659 528.472,683.492 480.5,662C 440.02,644.429 398.687,629.096 356.5,616C 338.632,611.199 320.632,607.033 302.5,603.5C 302.389,602.883 302.056,602.383 301.5,602C 321.818,594.783 342.485,588.783 363.5,584C 435.603,566.515 506.936,569.182 577.5,592C 618.464,606.647 658.131,624.313 696.5,645C 728.009,661.922 759.675,678.588 791.5,695C 808.355,703.1 825.355,710.6 842.5,717.5 Z"/></g>
<g><path style="opacity:1" fill="#e5edf5" d="M 307.5,577.5 C 309.842,577.504 311.842,578.337 313.5,580C 309.755,579.965 309.088,580.965 311.5,583C 309.822,582.888 308.155,582.388 306.5,581.5C 305.833,581.667 305.167,581.833 304.5,582C 305.696,582.654 305.696,583.154 304.5,583.5C 301.768,581.454 298.768,580.62 295.5,581C 297.996,582.08 300.33,583.414 302.5,585C 301.328,585.353 300.162,585.187 299,584.5C 297.989,584.892 297.489,585.559 297.5,586.5C 295.669,585.071 293.669,584.571 291.5,585C 292.328,585.915 293.328,586.581 294.5,587C 294.167,587.333 293.833,587.667 293.5,588C 295.158,588.725 295.658,589.892 295,591.5C 293.933,589.717 292.433,589.217 290.5,590C 292.63,592.703 292.13,595.203 289,597.5C 288.667,596.833 288.333,596.167 288,595.5C 286.905,596.693 286.072,598.027 285.5,599.5C 284.5,599.5 283.5,599.5 282.5,599.5C 268.549,597.673 254.549,596.34 240.5,595.5C 237.891,594.557 235.891,592.89 234.5,590.5C 256.932,585.601 279.432,580.934 302,576.5C 303.825,576.943 305.658,577.277 307.5,577.5 Z"/></g>
<g><path style="opacity:1" fill="#d6e3f1" d="M 427.5,563.5 C 423.018,564.326 418.351,564.826 413.5,565C 412.5,565.333 411.5,565.667 410.5,566C 412.595,566.556 412.762,567.056 411,567.5C 409.211,566.591 407.377,566.424 405.5,567C 407.595,567.556 407.762,568.056 406,568.5C 404.211,567.591 402.377,567.424 400.5,568C 401.328,568.915 402.328,569.581 403.5,570C 403.272,570.399 402.938,570.565 402.5,570.5C 401.833,570.5 401.167,570.5 400.5,570.5C 399.686,568.727 398.352,568.227 396.5,569C 397.167,569.333 397.833,569.667 398.5,570C 397.101,570.595 395.768,570.428 394.5,569.5C 394.167,570.167 393.833,570.833 393.5,571.5C 391.669,570.071 389.669,569.571 387.5,570C 388.167,570.333 388.833,570.667 389.5,571C 388.101,571.595 386.768,571.428 385.5,570.5C 384.304,570.846 384.304,571.346 385.5,572C 384.451,572.492 383.451,572.326 382.5,571.5C 381.304,571.846 381.304,572.346 382.5,573C 381.551,573.617 380.718,573.451 380,572.5C 379.667,573.167 379.333,573.833 379,574.5C 374.903,574.306 371.07,574.306 367.5,574.5C 366.304,574.846 366.304,575.346 367.5,576C 366.451,576.492 365.451,576.326 364.5,575.5C 363.5,576 362.5,576.5 361.5,577C 362.34,578.666 361.84,578.833 360,577.5C 359.309,579.891 358.309,579.891 357,577.5C 356.683,579.301 356.016,579.634 355,578.5C 354.667,579.167 354.333,579.833 354,580.5C 353,580.5 352,580.5 351,580.5C 349.419,583.553 347.086,584.22 344,582.5C 342.676,583.88 341.343,584.214 340,583.5C 339.667,584.167 339.333,584.833 339,585.5C 338,585.167 337,584.833 336,584.5C 335.667,585.167 335.333,585.833 335,586.5C 334,586.167 333,585.833 332,585.5C 331.667,586.167 331.333,586.833 331,587.5C 330,587.167 329,586.833 328,586.5C 327.667,587.167 327.333,587.833 327,588.5C 326,588.167 325,587.833 324,587.5C 323.667,588.167 323.333,588.833 323,589.5C 322,589.167 321,588.833 320,588.5C 319.558,590.679 318.558,591.345 317,590.5C 315.488,591.257 314.154,592.257 313,593.5C 312.667,593.167 312.333,592.833 312,592.5C 309.91,593.794 307.91,594.794 306,595.5C 305.667,595.167 305.333,594.833 305,594.5C 303.893,597.492 302.226,598.159 300,596.5C 299.333,597.167 298.667,597.833 298,598.5C 296.667,598.5 295.333,598.5 294,598.5C 293.667,597.833 293.333,597.167 293,596.5C 290.874,598.377 288.374,599.377 285.5,599.5C 286.072,598.027 286.905,596.693 288,595.5C 288.333,596.167 288.667,596.833 289,597.5C 292.13,595.203 292.63,592.703 290.5,590C 292.433,589.217 293.933,589.717 295,591.5C 295.658,589.892 295.158,588.725 293.5,588C 293.833,587.667 294.167,587.333 294.5,587C 293.328,586.581 292.328,585.915 291.5,585C 293.669,584.571 295.669,585.071 297.5,586.5C 297.489,585.559 297.989,584.892 299,584.5C 300.162,585.187 301.328,585.353 302.5,585C 300.33,583.414 297.996,582.08 295.5,581C 298.768,580.62 301.768,581.454 304.5,583.5C 305.696,583.154 305.696,582.654 304.5,582C 305.167,581.833 305.833,581.667 306.5,581.5C 308.155,582.388 309.822,582.888 311.5,583C 309.088,580.965 309.755,579.965 313.5,580C 311.842,578.337 309.842,577.504 307.5,577.5C 307.082,576.778 306.416,576.278 305.5,576C 344.359,568.609 385.025,564.443 427.5,563.5 Z"/></g>
<g><path style="opacity:1" fill="#a7c2e1" d="M 400.5,570.5 C 399.745,572.466 398.579,572.8 397,571.5C 394.262,573.289 391.428,574.622 388.5,575.5C 357.631,583.118 326.965,591.785 296.5,601.5C 291.63,601.31 286.964,600.644 282.5,599.5C 283.5,599.5 284.5,599.5 285.5,599.5C 288.374,599.377 290.874,598.377 293,596.5C 293.333,597.167 293.667,597.833 294,598.5C 295.333,598.5 296.667,598.5 298,598.5C 298.667,597.833 299.333,597.167 300,596.5C 302.226,598.159 303.893,597.492 305,594.5C 305.333,594.833 305.667,595.167 306,595.5C 307.91,594.794 309.91,593.794 312,592.5C 312.333,592.833 312.667,593.167 313,593.5C 314.154,592.257 315.488,591.257 317,590.5C 318.558,591.345 319.558,590.679 320,588.5C 321,588.833 322,589.167 323,589.5C 323.333,588.833 323.667,588.167 324,587.5C 325,587.833 326,588.167 327,588.5C 327.333,587.833 327.667,587.167 328,586.5C 329,586.833 330,587.167 331,587.5C 331.333,586.833 331.667,586.167 332,585.5C 333,585.833 334,586.167 335,586.5C 335.333,585.833 335.667,585.167 336,584.5C 337,584.833 338,585.167 339,585.5C 339.333,584.833 339.667,584.167 340,583.5C 341.343,584.214 342.676,583.88 344,582.5C 347.086,584.22 349.419,583.553 351,580.5C 352,580.5 353,580.5 354,580.5C 354.333,579.833 354.667,579.167 355,578.5C 356.016,579.634 356.683,579.301 357,577.5C 358.309,579.891 359.309,579.891 360,577.5C 361.84,578.833 362.34,578.666 361.5,577C 362.5,576.5 363.5,576 364.5,575.5C 365.451,576.326 366.451,576.492 367.5,576C 366.304,575.346 366.304,574.846 367.5,574.5C 371.07,574.306 374.903,574.306 379,574.5C 379.333,573.833 379.667,573.167 380,572.5C 380.718,573.451 381.551,573.617 382.5,573C 381.304,572.346 381.304,571.846 382.5,571.5C 383.451,572.326 384.451,572.492 385.5,572C 384.304,571.346 384.304,570.846 385.5,570.5C 386.768,571.428 388.101,571.595 389.5,571C 388.833,570.667 388.167,570.333 387.5,570C 389.669,569.571 391.669,570.071 393.5,571.5C 393.833,570.833 394.167,570.167 394.5,569.5C 395.768,570.428 397.101,570.595 398.5,570C 397.833,569.667 397.167,569.333 396.5,569C 398.352,568.227 399.686,568.727 400.5,570.5 Z"/></g>
<g><path style="opacity:1" fill="#302c68" d="M 186.5,595.5 C 187.5,595.5 188.5,595.5 189.5,595.5C 191.404,595.738 192.738,596.738 193.5,598.5C 190.833,598.5 188.167,598.5 185.5,598.5C 184.711,598.217 184.044,597.717 183.5,597C 184.737,596.768 185.737,596.268 186.5,595.5 Z"/></g>
<g><path style="opacity:1" fill="#36336d" d="M 204.5,594.5 C 207.167,594.5 209.833,594.5 212.5,594.5C 213.833,595.167 214.833,596.167 215.5,597.5C 212.833,597.5 210.167,597.5 207.5,597.5C 206.167,596.833 205.167,595.833 204.5,594.5 Z"/></g>
<g><path style="opacity:1" fill="#2b2865" d="M 173.5,596.5 C 175.5,596.5 177.5,596.5 179.5,596.5C 182.098,597.528 182.098,598.528 179.5,599.5C 178.5,599.5 177.5,599.5 176.5,599.5C 173.506,599.854 172.506,598.854 173.5,596.5 Z"/></g>
<g><path style="opacity:1" fill="#2e2b67" d="M 163.5,597.5 C 165.167,597.5 166.833,597.5 168.5,597.5C 170.404,597.738 171.738,598.738 172.5,600.5C 170.5,600.5 168.5,600.5 166.5,600.5C 163.506,600.854 162.506,599.854 163.5,597.5 Z"/></g>
<g><path style="opacity:1" fill="#e6edf6" d="M 207.5,597.5 C 210.167,597.5 212.833,597.5 215.5,597.5C 222.525,603.529 229.525,609.529 236.5,615.5C 235.41,616.857 234.076,617.857 232.5,618.5C 223.849,611.846 215.516,604.846 207.5,597.5 Z"/></g>
<g><path style="opacity:1" fill="#d6e2f0" d="M 243.5,598.5 C 256.238,599.176 268.904,600.509 281.5,602.5C 281.611,603.117 281.944,603.617 282.5,604C 275.598,606.568 268.598,609.734 261.5,613.5C 255.46,608.49 249.46,603.49 243.5,598.5 Z"/></g>
<g><path style="opacity:1" fill="#38346e" d="M 240.5,595.5 C 254.549,596.34 268.549,597.673 282.5,599.5C 286.964,600.644 291.63,601.31 296.5,601.5C 298.302,602.458 300.302,603.125 302.5,603.5C 320.632,607.033 338.632,611.199 356.5,616C 398.687,629.096 440.02,644.429 480.5,662C 528.472,683.492 576.472,704.659 624.5,725.5C 623.432,726.434 622.099,726.768 620.5,726.5C 573.742,706.289 527.075,685.789 480.5,665C 436.888,645.864 392.222,629.531 346.5,616C 329.618,611.521 312.618,607.688 295.5,604.5C 290.99,603.659 286.324,602.992 281.5,602.5C 268.904,600.509 256.238,599.176 243.5,598.5C 242.167,597.833 241.167,596.833 240.5,595.5 Z"/></g>
<g><path style="opacity:1" fill="#fefefe" d="M 295.5,604.5 C 312.618,607.688 329.618,611.521 346.5,616C 392.222,629.531 436.888,645.864 480.5,665C 527.075,685.789 573.742,706.289 620.5,726.5C 593.028,735.161 566.028,745.328 539.5,757C 537.866,757.494 536.199,757.66 534.5,757.5C 435.209,727.361 345.209,680.195 264.5,616C 268.814,614.628 272.814,612.795 276.5,610.5C 282.833,608.5 289.167,606.5 295.5,604.5 Z"/></g>
<g><path style="opacity:1" fill="#a1bdde" d="M 281.5,602.5 C 286.324,602.992 290.99,603.659 295.5,604.5C 289.167,606.5 282.833,608.5 276.5,610.5C 271.897,611.066 267.563,612.399 263.5,614.5C 262.584,614.457 261.917,614.124 261.5,613.5C 268.598,609.734 275.598,606.568 282.5,604C 281.944,603.617 281.611,603.117 281.5,602.5 Z"/></g>
<g><path style="opacity:1" fill="#2e2965" d="M 109.5,608.5 C 112.367,608.369 114.033,609.703 114.5,612.5C 96.7202,617.371 79.3868,623.538 62.5,631C 40.8507,640.823 19.8507,651.656 -0.5,663.5C -0.5,660.833 -0.5,658.167 -0.5,655.5C 33.9336,634.794 70.6003,619.127 109.5,608.5 Z"/></g>
<g><path style="opacity:1" fill="#eff4f9" d="M 176.5,599.5 C 177.5,599.5 178.5,599.5 179.5,599.5C 181.199,599.34 182.866,599.506 184.5,600C 191.705,606.708 199.038,613.208 206.5,619.5C 206.631,620.376 206.298,621.043 205.5,621.5C 202.199,619.016 198.533,617.349 194.5,616.5C 187.195,612.187 181.195,606.52 176.5,599.5 Z"/></g>
<g><path style="opacity:1" fill="#e4ecf5" d="M 185.5,598.5 C 188.167,598.5 190.833,598.5 193.5,598.5C 204.002,607.499 214.668,616.332 225.5,625C 227.464,626.451 228.797,628.284 229.5,630.5C 227.94,630.519 226.44,630.852 225,631.5C 210.777,621.779 197.611,610.779 185.5,598.5 Z"/></g>
<g><path style="opacity:1" fill="#fcfcfd" d="M 114.5,612.5 C 120.055,615.383 124.722,619.383 128.5,624.5C 101.622,632.594 75.2885,642.427 49.5,654C 50.5,654.333 51.5,654.667 52.5,655C 49.7025,656.914 46.7025,657.914 43.5,658C 44.8333,657.333 46.1667,656.667 47.5,656C 44.6421,655.591 42.3087,656.591 40.5,659C 38.444,659.311 36.444,659.811 34.5,660.5C 33.2888,661.274 33.2888,662.107 34.5,663C 26.4066,667.554 18.0733,671.221 9.5,674C 14.1667,671.667 18.8333,669.333 23.5,667C 15.2348,669.626 7.23482,673.126 -0.5,677.5C -0.5,672.833 -0.5,668.167 -0.5,663.5C 19.8507,651.656 40.8507,640.823 62.5,631C 79.3868,623.538 96.7202,617.371 114.5,612.5 Z"/></g>
<g><path style="opacity:1" fill="#d7e3f1" d="M 194.5,616.5 C 198.533,617.349 202.199,619.016 205.5,621.5C 206.298,621.043 206.631,620.376 206.5,619.5C 211.961,623.789 217.294,628.289 222.5,633C 220.934,633.608 219.6,634.442 218.5,635.5C 215.222,634.191 212.222,632.358 209.5,630C 204.305,625.634 199.305,621.134 194.5,616.5 Z"/></g>
<g><path style="opacity:1" fill="#c4d6eb" d="M 236.5,615.5 C 240.166,617.504 243.166,620.171 245.5,623.5C 244.71,624.401 243.71,625.068 242.5,625.5C 241.811,624.226 240.977,624.226 240,625.5C 237.14,623.498 234.64,621.165 232.5,618.5C 234.076,617.857 235.41,616.857 236.5,615.5 Z"/></g>
<g><path style="opacity:1" fill="#f7f9fc" d="M 533.5,758.5 C 533.622,759.707 532.622,760.374 530.5,760.5C 430.123,731.566 339.29,684.9 258,620.5C 257.312,619.668 257.479,619.002 258.5,618.5C 260.432,617.48 262.432,617.313 264.5,618C 344.648,682.083 434.315,728.916 533.5,758.5 Z"/></g>
<g><path style="opacity:1" fill="#e3ebf5" d="M 166.5,600.5 C 168.5,600.5 170.5,600.5 172.5,600.5C 185.043,611.875 198.043,622.709 211.5,633C 213.141,634.129 214.141,635.629 214.5,637.5C 212.181,638.167 209.847,638.334 207.5,638C 193.5,626 179.5,614 165.5,602C 166.056,601.617 166.389,601.117 166.5,600.5 Z"/></g>
<g><path style="opacity:1" fill="#f7f9fc" d="M 528.5,761.5 C 528.158,762.338 527.492,762.672 526.5,762.5C 518.983,761.954 511.649,760.454 504.5,758C 410.892,728.373 325.892,683.373 249.5,623C 251.911,620.302 254.577,619.968 257.5,622C 338.169,686.34 428.503,732.84 528.5,761.5 Z"/></g>
<g><path style="opacity:1" fill="#f7f9fc" d="M 245.5,623.5 C 267.266,639.227 289.266,654.727 311.5,670C 377.012,711.092 446.679,742.925 520.5,765.5C 519.833,765.5 519.167,765.5 518.5,765.5C 415.91,738.54 323.577,692.04 241.5,626C 241.728,625.601 242.062,625.435 242.5,625.5C 243.71,625.068 244.71,624.401 245.5,623.5 Z"/></g>
<g><path style="opacity:1" fill="#f7f9fc" d="M 515.5,767.5 C 514.609,768.11 513.609,768.443 512.5,768.5C 410.079,741.705 317.579,695.705 235,630.5C 234.833,630.167 234.667,629.833 234.5,629.5C 235.914,628.376 237.414,627.376 239,626.5C 321.462,691.817 413.629,738.817 515.5,767.5 Z"/></g>
<g><path style="opacity:1" fill="#f6f8fc" d="M 229.5,630.5 C 231.783,630.608 233.783,631.441 235.5,633C 317.325,697.08 408.659,742.913 509.5,770.5C 508.833,770.833 508.167,771.167 507.5,771.5C 403.33,745.246 309.33,699.079 225.5,633C 227.066,632.392 228.4,631.558 229.5,630.5 Z"/></g>
<g><path style="opacity:1" fill="#f7f9fc" d="M 503.5,773.5 C 502.833,773.833 502.167,774.167 501.5,774.5C 399.121,749.472 306.455,704.972 223.5,641C 221.576,639.25 219.909,637.417 218.5,635.5C 220.582,635.528 222.416,634.861 224,633.5C 307.195,699.348 400.362,746.015 503.5,773.5 Z"/></g>
<g><path style="opacity:1" fill="#f7f9fc" d="M 214.5,637.5 C 224.764,643.315 234.431,650.149 243.5,658C 320.814,712.818 405.481,752.318 497.5,776.5C 496.609,777.11 495.609,777.443 494.5,777.5C 389.778,751.634 295.111,705.801 210.5,640C 212.066,639.392 213.4,638.558 214.5,637.5 Z"/></g>
<g><path style="opacity:1" fill="#f7f9fc" d="M 492.5,778.5 C 491.486,779.674 490.153,780.34 488.5,780.5C 383.909,755.364 289.242,710.198 204.5,645C 203.167,644.333 203.167,643.667 204.5,643C 206.365,641.699 208.365,641.365 210.5,642C 294.432,707.461 388.432,752.961 492.5,778.5 Z"/></g>
<g><path style="opacity:1" fill="#f7f9fc" d="M 486.5,781.5 C 485.22,782.931 483.553,783.598 481.5,783.5C 376.346,758.75 281.346,713.417 196.5,647.5C 198.001,646.248 199.668,645.248 201.5,644.5C 286.231,710.693 381.231,756.359 486.5,781.5 Z"/></g>
<g><path style="opacity:1" fill="#f7f9fc" d="M 480.5,784.5 C 480.158,785.338 479.492,785.672 478.5,785.5C 372.151,762.582 275.984,718.249 190,652.5C 189.383,651.551 189.549,650.718 190.5,650C 192.044,648.813 193.711,648.48 195.5,649C 280.175,714.996 375.175,760.163 480.5,784.5 Z"/></g>
<g><path style="opacity:1" fill="#fefefe" d="M 170.5,660.5 C 172.308,660.491 173.975,660.991 175.5,662C 261.497,727.156 357.497,770.989 463.5,793.5C 446.899,802.135 430.233,810.802 413.5,819.5C 379.583,835.974 344.583,849.808 308.5,861C 293.48,865.007 278.48,868.507 263.5,871.5C 254.885,872.859 246.219,873.859 237.5,874.5C 166.102,839.498 99.4358,797.498 37.5,748.5C 44.8721,742.822 52.2054,737.155 59.5,731.5C 77.0293,718.908 94.696,706.574 112.5,694.5C 131.841,683.163 151.175,671.83 170.5,660.5 Z"/></g>
<g><path style="opacity:1" fill="#8eb1d8" d="M 169.5,657.5 C 170.404,658.209 170.737,659.209 170.5,660.5C 151.175,671.83 131.841,683.163 112.5,694.5C 114.846,692.021 117.513,689.854 120.5,688C 119.906,687.536 119.239,687.369 118.5,687.5C 129.776,679.659 141.776,672.826 154.5,667C 159.674,663.97 164.674,660.804 169.5,657.5 Z"/></g>
<g><path style="opacity:1" fill="#80a0d2" d="M -0.5,396.5 C 43.1293,470.018 96.1293,536.518 158.5,596C 160.025,597.009 161.692,597.509 163.5,597.5C 162.506,599.854 163.506,600.854 166.5,600.5C 166.389,601.117 166.056,601.617 165.5,602C 179.5,614 193.5,626 207.5,638C 209.847,638.334 212.181,638.167 214.5,637.5C 213.4,638.558 212.066,639.392 210.5,640C 295.111,705.801 389.778,751.634 494.5,777.5C 494.158,778.338 493.492,778.672 492.5,778.5C 388.432,752.961 294.432,707.461 210.5,642C 208.365,641.365 206.365,641.699 204.5,643C 203.167,643.667 203.167,644.333 204.5,645C 289.242,710.198 383.909,755.364 488.5,780.5C 488.158,781.338 487.492,781.672 486.5,781.5C 381.231,756.359 286.231,710.693 201.5,644.5C 199.668,645.248 198.001,646.248 196.5,647.5C 281.346,713.417 376.346,758.75 481.5,783.5C 480.833,783.5 480.5,783.833 480.5,784.5C 375.175,760.163 280.175,714.996 195.5,649C 193.711,648.48 192.044,648.813 190.5,650C 189.549,650.718 189.383,651.551 190,652.5C 275.984,718.249 372.151,762.582 478.5,785.5C 477.205,786.488 475.872,787.488 474.5,788.5C 368.923,763.122 273.089,717.788 187,652.5C 185.107,653.196 183.274,654.03 181.5,655C 268.274,721.876 365.607,766.376 473.5,788.5C 471.78,789.308 470.113,790.308 468.5,791.5C 389.967,773.072 315.967,743.239 246.5,702C 223.444,687.602 200.944,672.435 179,656.5C 173.986,657.451 173.486,659.284 177.5,662C 264.094,727.119 360.761,770.285 467.5,791.5C 466.486,792.674 465.153,793.34 463.5,793.5C 357.497,770.989 261.497,727.156 175.5,662C 173.975,660.991 172.308,660.491 170.5,660.5C 170.737,659.209 170.404,658.209 169.5,657.5C 166.833,655.5 164.167,653.5 161.5,651.5C 155.833,646.833 150.167,642.167 144.5,637.5C 139.148,633.143 133.814,628.81 128.5,624.5C 124.722,619.383 120.055,615.383 114.5,612.5C 114.033,609.703 112.367,608.369 109.5,608.5C 109.611,607.883 109.944,607.383 110.5,607C 69.2084,567.566 32.2084,524.732 -0.5,478.5C -0.5,477.5 -0.5,476.5 -0.5,475.5C 32.6727,522.188 70.0061,565.688 111.5,606C 112.448,606.483 113.448,606.649 114.5,606.5C 114.389,607.117 114.056,607.617 113.5,608C 115.323,608.997 116.99,610.164 118.5,611.5C 128.337,621.502 138.67,631.002 149.5,640C 157.167,645.833 164.833,651.667 172.5,657.5C 174.997,657.065 176.163,655.731 176,653.5C 158.523,639.181 141.356,624.514 124.5,609.5C 122.815,607.182 120.481,606.182 117.5,606.5C 117.918,605.778 118.584,605.278 119.5,605C 74.3811,561.752 34.3811,514.585 -0.5,463.5C -0.5,462.5 -0.5,461.5 -0.5,460.5C 28.3925,502.586 60.5591,542.253 96,579.5C 104.459,588.801 113.626,597.134 123.5,604.5C 123.833,606.833 125.167,608.167 127.5,608.5C 143.572,625.065 161.072,640.065 180,653.5C 181.473,653.097 182.806,652.43 184,651.5C 184.688,650.668 184.521,650.002 183.5,649.5C 166.521,635.853 149.855,621.853 133.5,607.5C 132.5,605.833 131.167,604.5 129.5,603.5C 80.2286,556.5 36.8953,504.833 -0.5,448.5C -0.5,447.5 -0.5,446.5 -0.5,445.5C 19.2634,474.78 40.43,503.113 63,530.5C 84.2913,556.292 107.458,580.292 132.5,602.5C 132.894,604.71 134.227,606.043 136.5,606.5C 146.337,616.502 156.67,626.002 167.5,635C 173.772,640.448 180.439,645.281 187.5,649.5C 188.938,649.281 190.271,648.781 191.5,648C 192.833,647.333 192.833,646.667 191.5,646C 174.691,633.02 158.358,619.52 142.5,605.5C 141.5,603.833 140.167,602.5 138.5,601.5C 85.7048,550.095 39.3715,493.762 -0.5,432.5C -0.5,431.5 -0.5,430.5 -0.5,429.5C 38.8085,490.131 84.4752,545.965 136.5,597C 138.527,598.879 140.86,600.046 143.5,600.5C 142.571,602.322 143.238,603.655 145.5,604.5C 159.533,618.023 174.199,630.856 189.5,643C 192.173,645.501 195.173,646.001 198.5,644.5C 199.711,643.726 199.711,642.893 198.5,642C 182.951,629.397 167.617,616.563 152.5,603.5C 151.313,601.025 149.313,600.025 146.5,600.5C 146.918,599.778 147.584,599.278 148.5,599C 90.7048,544.414 41.0381,483.581 -0.5,416.5C -0.5,415.5 -0.5,414.5 -0.5,413.5C 11.3101,431.101 23.1434,448.768 35,466.5C 68.9132,514.928 107.747,559.262 151.5,599.5C 152.262,601.262 153.596,602.262 155.5,602.5C 167.379,614.434 180.045,625.434 193.5,635.5C 196.155,637.983 198.988,640.316 202,642.5C 203.893,641.804 205.726,640.97 207.5,640C 204.271,637.259 200.938,634.759 197.5,632.5C 186.196,623.153 175.196,613.319 164.5,603C 162.527,602.505 160.527,602.338 158.5,602.5C 162.327,601.578 162.327,600.245 158.5,598.5C 96.1362,539.321 43.1362,472.987 -0.5,399.5C -0.5,398.5 -0.5,397.5 -0.5,396.5 Z"/></g>
<g><path style="opacity:1" fill="#f7f9fc" d="M 468.5,791.5 C 468.167,791.5 467.833,791.5 467.5,791.5C 360.761,770.285 264.094,727.119 177.5,662C 173.486,659.284 173.986,657.451 179,656.5C 200.944,672.435 223.444,687.602 246.5,702C 315.967,743.239 389.967,773.072 468.5,791.5 Z"/></g>
<g><path style="opacity:1" fill="#f7f9fc" d="M 474.5,788.5 C 474.167,788.5 473.833,788.5 473.5,788.5C 365.607,766.376 268.274,721.876 181.5,655C 183.274,654.03 185.107,653.196 187,652.5C 273.089,717.788 368.923,763.122 474.5,788.5 Z"/></g>
<g><path style="opacity:1" fill="#e8eef6" d="M 124.5,609.5 C 141.356,624.514 158.523,639.181 176,653.5C 176.163,655.731 174.997,657.065 172.5,657.5C 164.833,651.667 157.167,645.833 149.5,640C 138.67,631.002 128.337,621.502 118.5,611.5C 120.302,610.542 122.302,609.875 124.5,609.5 Z"/></g>
<g><path style="opacity:1" fill="#c6d8eb" d="M 197.5,632.5 C 200.938,634.759 204.271,637.259 207.5,640C 205.726,640.97 203.893,641.804 202,642.5C 198.988,640.316 196.155,637.983 193.5,635.5C 194.822,635.33 195.989,635.663 197,636.5C 197.49,635.207 197.657,633.873 197.5,632.5 Z"/></g>
<g><path style="opacity:1" fill="#e6edf6" d="M 152.5,603.5 C 167.617,616.563 182.951,629.397 198.5,642C 199.711,642.893 199.711,643.726 198.5,644.5C 195.173,646.001 192.173,645.501 189.5,643C 174.199,630.856 159.533,618.023 145.5,604.5C 147.764,603.781 150.097,603.448 152.5,603.5 Z"/></g>
<g><path style="opacity:1" fill="#e4ecf5" d="M 133.5,607.5 C 149.855,621.853 166.521,635.853 183.5,649.5C 184.521,650.002 184.688,650.668 184,651.5C 182.806,652.43 181.473,653.097 180,653.5C 161.072,640.065 143.572,625.065 127.5,608.5C 129.435,607.85 131.435,607.517 133.5,607.5 Z"/></g>
<g><path style="opacity:1" fill="#e8eef7" d="M 142.5,605.5 C 158.358,619.52 174.691,633.02 191.5,646C 192.833,646.667 192.833,647.333 191.5,648C 190.271,648.781 188.938,649.281 187.5,649.5C 180.439,645.281 173.772,640.448 167.5,635C 156.67,626.002 146.337,616.502 136.5,606.5C 138.5,606.167 140.5,605.833 142.5,605.5 Z"/></g>
<g><path style="opacity:1" fill="#edf2f8" d="M 155.5,602.5 C 156.5,602.5 157.5,602.5 158.5,602.5C 160.527,602.338 162.527,602.505 164.5,603C 175.196,613.319 186.196,623.153 197.5,632.5C 197.657,633.873 197.49,635.207 197,636.5C 195.989,635.663 194.822,635.33 193.5,635.5C 180.045,625.434 167.379,614.434 155.5,602.5 Z"/></g>
<g><path style="opacity:1" fill="#2e2a67" d="M 114.5,606.5 C 115.5,606.5 116.5,606.5 117.5,606.5C 120.481,606.182 122.815,607.182 124.5,609.5C 122.302,609.875 120.302,610.542 118.5,611.5C 116.99,610.164 115.323,608.997 113.5,608C 114.056,607.617 114.389,607.117 114.5,606.5 Z"/></g>
<g><path style="opacity:1" fill="#2d2966" d="M 129.5,603.5 C 131.167,604.5 132.5,605.833 133.5,607.5C 131.435,607.517 129.435,607.85 127.5,608.5C 125.167,608.167 123.833,606.833 123.5,604.5C 125.565,604.483 127.565,604.15 129.5,603.5 Z"/></g>
<g><path style="opacity:1" fill="#322e6a" d="M 138.5,601.5 C 140.167,602.5 141.5,603.833 142.5,605.5C 140.5,605.833 138.5,606.167 136.5,606.5C 134.227,606.043 132.894,604.71 132.5,602.5C 134.621,602.675 136.621,602.341 138.5,601.5 Z"/></g>
<g><path style="opacity:1" fill="#2b2865" d="M 143.5,600.5 C 144.5,600.5 145.5,600.5 146.5,600.5C 149.313,600.025 151.313,601.025 152.5,603.5C 150.097,603.448 147.764,603.781 145.5,604.5C 143.238,603.655 142.571,602.322 143.5,600.5 Z"/></g>
<g><path style="opacity:1" fill="#332f6a" d="M 158.5,598.5 C 162.327,600.245 162.327,601.578 158.5,602.5C 157.5,602.5 156.5,602.5 155.5,602.5C 153.596,602.262 152.262,601.262 151.5,599.5C 153.764,598.781 156.097,598.448 158.5,598.5 Z"/></g>
<g><path style="opacity:1" fill="#ccdbed" d="M 161.5,651.5 C 164.167,653.5 166.833,655.5 169.5,657.5C 164.674,660.804 159.674,663.97 154.5,667C 141.776,672.826 129.776,679.659 118.5,687.5C 106.241,693.297 94.5739,700.131 83.5,708C 80.293,711.949 76.293,714.949 71.5,717C 69.9632,718.11 69.2965,719.61 69.5,721.5C 66.634,722.759 63.634,723.759 60.5,724.5C 60.719,725.675 60.3857,726.675 59.5,727.5C 50.9186,733.611 42.5853,739.944 34.5,746.5C 32.6115,745.396 30.9448,744.063 29.5,742.5C 39.4964,735.702 50.4964,728.536 62.5,721C 59.1446,721.795 58.6446,720.628 61,717.5C 61.3333,718.167 61.6667,718.833 62,719.5C 62.8624,717.913 63.5291,716.246 64,714.5C 64.3333,715.167 64.6667,715.833 65,716.5C 65.6667,715.167 66.3333,713.833 67,712.5C 67.6543,713.696 68.1543,713.696 68.5,712.5C 67.1666,711.38 66.6666,710.047 67,708.5C 67.7412,709.641 68.5745,709.641 69.5,708.5C 70.1924,709.025 70.6924,709.692 71,710.5C 72,708.5 73,706.5 74,704.5C 75.016,705.634 75.6827,705.301 76,703.5C 76.9147,704.328 77.5814,705.328 78,706.5C 79.6667,704.167 81.3333,701.833 83,699.5C 83.9147,700.328 84.5814,701.328 85,702.5C 86,701.5 87,700.5 88,699.5C 88.6667,702.167 89.3333,702.167 90,699.5C 90.3333,700.167 90.6667,700.833 91,701.5C 91.6667,699.5 92.3333,697.5 93,695.5C 93.3333,696.167 93.6667,696.833 94,697.5C 94.6667,696.167 95.3333,696.167 96,697.5C 96.1953,695.793 96.1953,694.126 96,692.5C 97.016,693.634 97.6827,693.301 98,691.5C 98.3333,692.167 98.6667,692.833 99,693.5C 99.4709,691.754 100.138,690.087 101,688.5C 101.333,688.833 101.667,689.167 102,689.5C 103,688.5 104,687.5 105,686.5C 105.974,688.878 106.641,688.544 107,685.5C 107.333,686.167 107.667,686.833 108,687.5C 109,686.5 110,685.5 111,684.5C 111.974,686.878 112.641,686.544 113,683.5C 113.333,684.167 113.667,684.833 114,685.5C 115,684.167 116,682.833 117,681.5C 117.333,682.167 117.667,682.833 118,683.5C 119.459,680.858 119.792,678.191 119,675.5C 119.915,676.328 120.581,677.328 121,678.5C 121.667,675.833 122.333,675.833 123,678.5C 123.359,675.456 124.026,675.122 125,677.5C 125.195,675.793 125.195,674.126 125,672.5C 126.016,673.634 126.683,673.301 127,671.5C 128.016,672.634 128.683,672.301 129,670.5C 130.016,671.634 130.683,671.301 131,669.5C 132,669.5 133,669.5 134,669.5C 134,668.167 134,666.833 134,665.5C 134.333,665.833 134.667,666.167 135,666.5C 136,665.5 137,664.5 138,663.5C 139.309,665.891 140.309,665.891 141,663.5C 141.333,663.833 141.667,664.167 142,664.5C 141.667,662.833 141.333,661.167 141,659.5C 142.309,661.891 143.309,661.891 144,659.5C 144.333,659.833 144.667,660.167 145,660.5C 144.725,656.517 145.725,656.517 148,660.5C 148.317,658.699 148.984,658.366 150,659.5C 149.667,657.833 149.333,656.167 149,654.5C 150.309,656.891 151.309,656.891 152,654.5C 153.309,656.891 154.309,656.891 155,654.5C 156.281,655.647 156.614,655.313 156,653.5C 150.159,647.586 150.492,647.253 157,652.5C 157.333,651.833 157.667,651.167 158,650.5C 159.385,651.551 160.385,652.884 161,654.5C 161.483,653.552 161.649,652.552 161.5,651.5 Z"/></g>
<g><path style="opacity:1" fill="#e3ebf5" d="M 144.5,637.5 C 150.167,642.167 155.833,646.833 161.5,651.5C 161.649,652.552 161.483,653.552 161,654.5C 160.385,652.884 159.385,651.551 158,650.5C 157.667,651.167 157.333,651.833 157,652.5C 150.492,647.253 150.159,647.586 156,653.5C 156.614,655.313 156.281,655.647 155,654.5C 154.309,656.891 153.309,656.891 152,654.5C 151.309,656.891 150.309,656.891 149,654.5C 149.333,656.167 149.667,657.833 150,659.5C 148.984,658.366 148.317,658.699 148,660.5C 145.725,656.517 144.725,656.517 145,660.5C 144.667,660.167 144.333,659.833 144,659.5C 143.309,661.891 142.309,661.891 141,659.5C 141.333,661.167 141.667,662.833 142,664.5C 141.667,664.167 141.333,663.833 141,663.5C 140.309,665.891 139.309,665.891 138,663.5C 137,664.5 136,665.5 135,666.5C 134.667,666.167 134.333,665.833 134,665.5C 134,666.833 134,668.167 134,669.5C 133,669.5 132,669.5 131,669.5C 130.683,671.301 130.016,671.634 129,670.5C 128.683,672.301 128.016,672.634 127,671.5C 126.683,673.301 126.016,673.634 125,672.5C 125.195,674.126 125.195,675.793 125,677.5C 124.026,675.122 123.359,675.456 123,678.5C 122.333,675.833 121.667,675.833 121,678.5C 120.581,677.328 119.915,676.328 119,675.5C 119.792,678.191 119.459,680.858 118,683.5C 117.667,682.833 117.333,682.167 117,681.5C 116,682.833 115,684.167 114,685.5C 113.667,684.833 113.333,684.167 113,683.5C 112.641,686.544 111.974,686.878 111,684.5C 110,685.5 109,686.5 108,687.5C 107.667,686.833 107.333,686.167 107,685.5C 106.641,688.544 105.974,688.878 105,686.5C 104,687.5 103,688.5 102,689.5C 101.667,689.167 101.333,688.833 101,688.5C 100.138,690.087 99.4709,691.754 99,693.5C 98.6667,692.833 98.3333,692.167 98,691.5C 97.6827,693.301 97.016,693.634 96,692.5C 96.1953,694.126 96.1953,695.793 96,697.5C 95.3333,696.167 94.6667,696.167 94,697.5C 93.6667,696.833 93.3333,696.167 93,695.5C 92.3333,697.5 91.6667,699.5 91,701.5C 90.6667,700.833 90.3333,700.167 90,699.5C 89.3333,702.167 88.6667,702.167 88,699.5C 87,700.5 86,701.5 85,702.5C 84.5814,701.328 83.9147,700.328 83,699.5C 81.3333,701.833 79.6667,704.167 78,706.5C 77.5814,705.328 76.9147,704.328 76,703.5C 75.6827,705.301 75.016,705.634 74,704.5C 73,706.5 72,708.5 71,710.5C 70.6924,709.692 70.1924,709.025 69.5,708.5C 68.5745,709.641 67.7412,709.641 67,708.5C 66.6666,710.047 67.1666,711.38 68.5,712.5C 68.1543,713.696 67.6543,713.696 67,712.5C 66.3333,713.833 65.6667,715.167 65,716.5C 64.6667,715.833 64.3333,715.167 64,714.5C 63.5291,716.246 62.8624,717.913 62,719.5C 61.6667,718.833 61.3333,718.167 61,717.5C 58.6446,720.628 59.1446,721.795 62.5,721C 50.4964,728.536 39.4964,735.702 29.5,742.5C 20.8587,736.519 12.5253,730.186 4.5,723.5C 7.16231,724.639 9.82898,724.806 12.5,724C 13.1667,724.333 13.8333,724.667 14.5,725C 13.3279,725.419 12.3279,726.085 11.5,727C 13.5,728 15.5,729 17.5,730C 17.1667,730.333 16.8333,730.667 16.5,731C 19.3286,732.247 21.9952,733.747 24.5,735.5C 27.7116,733.893 30.5449,734.56 33,737.5C 33.6355,736.034 34.4688,734.7 35.5,733.5C 33.7988,733.81 32.1322,733.31 30.5,732C 31.9931,730.632 33.4931,730.465 35,731.5C 37.1667,730 37,728.833 34.5,728C 35.5,727.5 36.5,727 37.5,726.5C 38.7112,727.274 38.7112,728.107 37.5,729C 39.1376,732.057 40.4709,732.057 41.5,729C 39.6652,728.072 39.3318,726.906 40.5,725.5C 38.9716,724.139 37.3049,722.972 35.5,722C 37.6806,719.922 39.6806,720.089 41.5,722.5C 42.5,722 43.5,721.5 44.5,721C 42.8333,720 41.1667,719 39.5,718C 41.6806,715.922 43.6806,716.089 45.5,718.5C 46.5,718 47.5,717.5 48.5,717C 47.0337,716.365 45.7003,715.531 44.5,714.5C 40.6327,715.487 40.6327,714.987 44.5,713C 44.1667,712.667 43.8333,712.333 43.5,712C 45.0468,711.667 46.3801,712.167 47.5,713.5C 46.9836,712.242 47.6503,711.242 49.5,710.5C 51.7732,712.663 54.1065,712.829 56.5,711C 55.8333,710.667 55.1667,710.333 54.5,710C 57.1667,708.667 59.8333,707.333 62.5,706C 61.8333,705.667 61.1667,705.333 60.5,705C 68.4674,701.104 75.9674,697.271 83,693.5C 83.2387,691.275 82.4054,690.942 80.5,692.5C 78.8333,691.667 77.1667,690.833 75.5,690C 76.1667,689.667 76.8333,689.333 77.5,689C 76.3584,684.15 78.3584,683.316 83.5,686.5C 84.5,686 85.5,685.5 86.5,685C 82.4429,683.554 79.4429,681.554 77.5,679C 78.5,678.5 79.5,678 80.5,677.5C 81.6956,677.846 81.6956,678.346 80.5,679C 84.1667,680.833 87.8333,682.667 91.5,684.5C 93.1667,683.667 94.8333,682.833 96.5,682C 95.0337,681.365 93.7003,680.531 92.5,679.5C 92.1667,680.167 91.8333,680.833 91.5,681.5C 90.6919,681.192 90.0253,680.692 89.5,680C 90.8333,679.333 90.8333,678.667 89.5,678C 90.1667,677.667 90.8333,677.333 91.5,677C 89.7756,676.552 89.109,675.718 89.5,674.5C 87.2805,675.346 85.1139,675.012 83,673.5C 81.2382,673.944 81.4049,674.444 83.5,675C 81.2307,676.724 78.8974,676.724 76.5,675C 77.8333,674.333 79.1667,673.667 80.5,673C 77.8333,672.333 77.8333,671.667 80.5,671C 76.7309,670.234 76.8976,669.401 81,668.5C 84.1526,670.525 87.3192,670.692 90.5,669C 86.7309,668.234 86.8976,667.401 91,666.5C 93.4858,666.739 95.9858,667.073 98.5,667.5C 99.7946,666.902 101.128,666.402 102.5,666C 99.4557,665.641 99.1224,664.974 101.5,664C 99.913,663.138 98.2464,662.471 96.5,662C 97.8333,661.333 99.1667,660.667 100.5,660C 97.8333,659.333 97.8333,658.667 100.5,658C 99.5,657.667 98.5,657.333 97.5,657C 100.742,655.361 104.076,654.361 107.5,654C 104.833,654.667 104.833,655.333 107.5,656C 105.122,656.974 105.456,657.641 108.5,658C 105.833,658.667 105.833,659.333 108.5,660C 105.833,660.667 105.833,661.333 108.5,662C 107.833,662.333 107.167,662.667 106.5,663C 109.952,664.226 113.285,665.726 116.5,667.5C 117.5,667 118.5,666.5 119.5,666C 116.833,664.667 114.167,663.333 111.5,662C 114.167,661.333 114.167,660.667 111.5,660C 114.522,659.151 117.522,658.485 120.5,658C 117.833,657.333 117.833,656.667 120.5,656C 119.833,655.667 119.167,655.333 118.5,655C 119.609,654.362 120.775,653.862 122,653.5C 125.749,654.692 129.249,656.358 132.5,658.5C 132.109,657.282 132.776,656.448 134.5,656C 133.167,655.333 131.833,654.667 130.5,654C 131.167,653.667 131.833,653.333 132.5,653C 127.73,651.777 127.563,650.61 132,649.5C 133.923,650.802 135.757,650.635 137.5,649C 135.405,648.444 135.238,647.944 137,647.5C 138.225,647.862 139.391,648.362 140.5,649C 137.972,649.669 137.972,650.502 140.5,651.5C 141.293,651.069 142.127,650.735 143,650.5C 144.393,651.615 145.893,652.115 147.5,652C 146.366,650.984 146.699,650.317 148.5,650C 147.328,649.581 146.328,648.915 145.5,648C 148.314,647.221 149.98,645.888 150.5,644C 148.283,642.725 145.949,641.725 143.5,641C 146.167,640.333 146.167,639.667 143.5,639C 144.056,638.617 144.389,638.117 144.5,637.5 Z"/></g>
<g><path style="opacity:1" fill="#81a1d2" d="M -0.5,261.5 C 7.54861,278.773 15.7153,296.107 24,313.5C 32.0787,329.325 40.412,344.992 49,360.5C 97.7001,447.456 159.533,524.123 234.5,590.5C 235.891,592.89 237.891,594.557 240.5,595.5C 241.167,596.833 242.167,597.833 243.5,598.5C 249.46,603.49 255.46,608.49 261.5,613.5C 261.917,614.124 262.584,614.457 263.5,614.5C 267.563,612.399 271.897,611.066 276.5,610.5C 272.814,612.795 268.814,614.628 264.5,616C 345.209,680.195 435.209,727.361 534.5,757.5C 533.833,757.5 533.5,757.833 533.5,758.5C 434.315,728.916 344.648,682.083 264.5,618C 262.432,617.313 260.432,617.48 258.5,618.5C 257.479,619.002 257.312,619.668 258,620.5C 339.29,684.9 430.123,731.566 530.5,760.5C 530.158,761.338 529.492,761.672 528.5,761.5C 428.503,732.84 338.169,686.34 257.5,622C 254.577,619.968 251.911,620.302 249.5,623C 325.892,683.373 410.892,728.373 504.5,758C 511.649,760.454 518.983,761.954 526.5,762.5C 524.412,763.201 522.412,764.201 520.5,765.5C 446.679,742.925 377.012,711.092 311.5,670C 289.266,654.727 267.266,639.227 245.5,623.5C 243.166,620.171 240.166,617.504 236.5,615.5C 229.525,609.529 222.525,603.529 215.5,597.5C 214.833,596.167 213.833,595.167 212.5,594.5C 122.753,512.641 51.7535,416.975 -0.5,307.5C -0.5,306.167 -0.5,304.833 -0.5,303.5C 6.69945,318.231 14.1995,332.897 22,347.5C 71.9874,441.013 136.487,523.346 215.5,594.5C 216.436,595.974 217.77,596.974 219.5,597.5C 226.342,604.506 233.675,611.006 241.5,617C 242.449,617.617 243.282,617.451 244,616.5C 245.333,619.167 246.667,619.167 248,616.5C 249.281,617.647 249.614,617.313 249,615.5C 241.668,609.665 234.501,603.665 227.5,597.5C 226.738,595.738 225.404,594.738 223.5,594.5C 128.023,507.356 53.3565,405.022 -0.5,287.5C -0.5,286.167 -0.5,284.833 -0.5,283.5C 8.28739,301.075 17.1207,318.741 26,336.5C 77.3557,434.212 144.189,520.046 226.5,594C 229.5,594.667 232.5,594.667 235.5,594C 225.202,585.37 215.202,576.37 205.5,567C 117.373,479.951 48.7067,379.451 -0.5,265.5C -0.5,264.167 -0.5,262.833 -0.5,261.5 Z"/></g>
<g><path style="opacity:1" fill="#dde7f3" d="M 232.5,599.5 C 235.304,598.362 238.304,598.195 241.5,599C 247.199,603.702 252.533,608.702 257.5,614C 256.618,615.917 255.285,616.917 253.5,617C 246.469,611.159 239.469,605.325 232.5,599.5 Z"/></g>
<g><path style="opacity:1" fill="#e0e9f4" d="M 219.5,597.5 C 222.167,597.5 224.833,597.5 227.5,597.5C 234.501,603.665 241.668,609.665 249,615.5C 249.614,617.313 249.281,617.647 248,616.5C 246.667,619.167 245.333,619.167 244,616.5C 243.282,617.451 242.449,617.617 241.5,617C 233.675,611.006 226.342,604.506 219.5,597.5 Z"/></g>
<g><path style="opacity:1" fill="#2a2d6b" d="M 228.5,596.5 C 229.793,595.842 231.293,595.508 233,595.5C 235.051,595.423 236.884,595.923 238.5,597C 235.076,597.747 231.743,597.58 228.5,596.5 Z"/></g>
<g><path style="opacity:1" fill="#363772" d="M 215.5,594.5 C 218.167,594.5 220.833,594.5 223.5,594.5C 225.404,594.738 226.738,595.738 227.5,597.5C 224.833,597.5 222.167,597.5 219.5,597.5C 217.77,596.974 216.436,595.974 215.5,594.5 Z"/></g>
<g><path style="opacity:1" fill="#81a1d2" d="M -0.5,361.5 C 47.4137,448.627 107.747,526.46 180.5,595C 182.473,595.495 184.473,595.662 186.5,595.5C 185.737,596.268 184.737,596.768 183.5,597C 184.044,597.717 184.711,598.217 185.5,598.5C 197.611,610.779 210.777,621.779 225,631.5C 226.44,630.852 227.94,630.519 229.5,630.5C 228.4,631.558 227.066,632.392 225.5,633C 309.33,699.079 403.33,745.246 507.5,771.5C 506.329,772.345 504.995,773.011 503.5,773.5C 400.362,746.015 307.195,699.348 224,633.5C 222.416,634.861 220.582,635.528 218.5,635.5C 219.6,634.442 220.934,633.608 222.5,633C 217.294,628.289 211.961,623.789 206.5,619.5C 199.038,613.208 191.705,606.708 184.5,600C 182.866,599.506 181.199,599.34 179.5,599.5C 182.098,598.528 182.098,597.528 179.5,596.5C 107.308,528.684 47.3079,451.684 -0.5,365.5C -0.5,364.167 -0.5,362.833 -0.5,361.5 Z"/></g>
<g><path style="opacity:1" fill="#499bd4" d="M 842.5,717.5 C 845.542,717.733 848.208,718.733 850.5,720.5C 846.766,720.677 843.099,720.344 839.5,719.5C 771.308,704.878 703.974,708.045 637.5,729C 636.944,729.383 636.611,729.883 636.5,730.5C 634.901,730.232 633.568,730.566 632.5,731.5C 606.215,739.928 580.548,749.928 555.5,761.5C 553.887,762.692 552.22,763.692 550.5,764.5C 550.167,764.5 549.833,764.5 549.5,764.5C 548.833,765.167 548.167,765.833 547.5,766.5C 545.62,766.229 544.287,766.896 543.5,768.5C 542.508,768.328 541.842,768.662 541.5,769.5C 540.041,769.433 538.708,769.766 537.5,770.5C 536.29,770.932 535.29,771.599 534.5,772.5C 533.391,772.557 532.391,772.89 531.5,773.5C 530.29,773.932 529.29,774.599 528.5,775.5C 528.167,775.5 527.833,775.5 527.5,775.5C 525.887,776.692 524.22,777.692 522.5,778.5C 522.167,778.5 521.833,778.5 521.5,778.5C 520.833,779.167 520.167,779.833 519.5,780.5C 517.847,780.66 516.514,781.326 515.5,782.5C 514.508,782.328 513.842,782.662 513.5,783.5C 510.54,784.032 510.207,784.699 512.5,785.5C 511.791,786.404 510.791,786.737 509.5,786.5C 503.854,787.088 503.521,787.754 508.5,788.5C 507.791,789.404 506.791,789.737 505.5,789.5C 503.833,789.5 502.167,789.5 500.5,789.5C 499.26,790.659 497.926,791.659 496.5,792.5C 495.508,792.328 494.842,792.662 494.5,793.5C 493.508,793.328 492.842,793.662 492.5,794.5C 488.582,795.525 488.582,796.525 492.5,797.5C 491.167,797.5 489.833,797.5 488.5,797.5C 463.105,810.7 437.771,824.2 412.5,838C 402.145,842.845 391.812,847.678 381.5,852.5C 380.244,852.539 379.244,852.039 378.5,851C 380.853,847.651 383.52,844.651 386.5,842C 386.167,841.667 385.833,841.333 385.5,841C 389.367,838.302 393.367,835.802 397.5,833.5C 396.975,832.808 396.308,832.308 395.5,832C 400.5,829.5 405.5,827 410.5,824.5C 411.711,823.726 411.711,822.893 410.5,822C 411.942,821.623 412.942,820.79 413.5,819.5C 430.233,810.802 446.899,802.135 463.5,793.5C 465.153,793.34 466.486,792.674 467.5,791.5C 467.833,791.5 468.167,791.5 468.5,791.5C 470.113,790.308 471.78,789.308 473.5,788.5C 473.833,788.5 474.167,788.5 474.5,788.5C 475.872,787.488 477.205,786.488 478.5,785.5C 479.492,785.672 480.158,785.338 480.5,784.5C 480.5,783.833 480.833,783.5 481.5,783.5C 483.553,783.598 485.22,782.931 486.5,781.5C 487.492,781.672 488.158,781.338 488.5,780.5C 490.153,780.34 491.486,779.674 492.5,778.5C 493.492,778.672 494.158,778.338 494.5,777.5C 495.609,777.443 496.609,777.11 497.5,776.5C 499.153,776.34 500.486,775.674 501.5,774.5C 502.167,774.167 502.833,773.833 503.5,773.5C 504.995,773.011 506.329,772.345 507.5,771.5C 508.167,771.167 508.833,770.833 509.5,770.5C 510.71,770.068 511.71,769.401 512.5,768.5C 513.609,768.443 514.609,768.11 515.5,767.5C 516.71,767.068 517.71,766.401 518.5,765.5C 519.167,765.5 519.833,765.5 520.5,765.5C 522.412,764.201 524.412,763.201 526.5,762.5C 527.492,762.672 528.158,762.338 528.5,761.5C 529.492,761.672 530.158,761.338 530.5,760.5C 532.622,760.374 533.622,759.707 533.5,758.5C 533.5,757.833 533.833,757.5 534.5,757.5C 536.199,757.66 537.866,757.494 539.5,757C 566.028,745.328 593.028,735.161 620.5,726.5C 622.099,726.768 623.432,726.434 624.5,725.5C 696.511,705.892 769.177,703.225 842.5,717.5 Z"/></g>
<g><path style="opacity:1" fill="#fcfdfe" d="M 839.5,719.5 C 803.272,719.706 767.939,725.872 733.5,738C 721.366,742.569 709.366,747.403 697.5,752.5C 677.019,745.562 656.686,738.229 636.5,730.5C 636.611,729.883 636.944,729.383 637.5,729C 703.974,708.045 771.308,704.878 839.5,719.5 Z"/></g>
<g><path style="opacity:1" fill="#f0f5fa" d="M 128.5,624.5 C 133.814,628.81 139.148,633.143 144.5,637.5C 144.389,638.117 144.056,638.617 143.5,639C 146.167,639.667 146.167,640.333 143.5,641C 145.949,641.725 148.283,642.725 150.5,644C 149.98,645.888 148.314,647.221 145.5,648C 146.328,648.915 147.328,649.581 148.5,650C 146.699,650.317 146.366,650.984 147.5,652C 145.893,652.115 144.393,651.615 143,650.5C 142.127,650.735 141.293,651.069 140.5,651.5C 137.972,650.502 137.972,649.669 140.5,649C 139.391,648.362 138.225,647.862 137,647.5C 135.238,647.944 135.405,648.444 137.5,649C 135.757,650.635 133.923,650.802 132,649.5C 127.563,650.61 127.73,651.777 132.5,653C 131.833,653.333 131.167,653.667 130.5,654C 131.833,654.667 133.167,655.333 134.5,656C 132.776,656.448 132.109,657.282 132.5,658.5C 129.249,656.358 125.749,654.692 122,653.5C 120.775,653.862 119.609,654.362 118.5,655C 119.167,655.333 119.833,655.667 120.5,656C 117.833,656.667 117.833,657.333 120.5,658C 117.522,658.485 114.522,659.151 111.5,660C 114.167,660.667 114.167,661.333 111.5,662C 114.167,663.333 116.833,664.667 119.5,666C 118.5,666.5 117.5,667 116.5,667.5C 113.285,665.726 109.952,664.226 106.5,663C 107.167,662.667 107.833,662.333 108.5,662C 105.833,661.333 105.833,660.667 108.5,660C 105.833,659.333 105.833,658.667 108.5,658C 105.456,657.641 105.122,656.974 107.5,656C 104.833,655.333 104.833,654.667 107.5,654C 104.076,654.361 100.742,655.361 97.5,657C 98.5,657.333 99.5,657.667 100.5,658C 97.8333,658.667 97.8333,659.333 100.5,660C 99.1667,660.667 97.8333,661.333 96.5,662C 98.2464,662.471 99.913,663.138 101.5,664C 99.1224,664.974 99.4557,665.641 102.5,666C 101.128,666.402 99.7946,666.902 98.5,667.5C 95.9858,667.073 93.4858,666.739 91,666.5C 86.8976,667.401 86.7309,668.234 90.5,669C 87.3192,670.692 84.1526,670.525 81,668.5C 76.8976,669.401 76.7309,670.234 80.5,671C 77.8333,671.667 77.8333,672.333 80.5,673C 79.1667,673.667 77.8333,674.333 76.5,675C 78.8974,676.724 81.2307,676.724 83.5,675C 81.4049,674.444 81.2382,673.944 83,673.5C 85.1139,675.012 87.2805,675.346 89.5,674.5C 89.109,675.718 89.7756,676.552 91.5,677C 90.8333,677.333 90.1667,677.667 89.5,678C 90.8333,678.667 90.8333,679.333 89.5,680C 90.0253,680.692 90.6919,681.192 91.5,681.5C 91.8333,680.833 92.1667,680.167 92.5,679.5C 93.7003,680.531 95.0337,681.365 96.5,682C 94.8333,682.833 93.1667,683.667 91.5,684.5C 87.8333,682.667 84.1667,680.833 80.5,679C 81.6956,678.346 81.6956,677.846 80.5,677.5C 79.5,678 78.5,678.5 77.5,679C 79.4429,681.554 82.4429,683.554 86.5,685C 85.5,685.5 84.5,686 83.5,686.5C 78.3584,683.316 76.3584,684.15 77.5,689C 76.8333,689.333 76.1667,689.667 75.5,690C 77.1667,690.833 78.8333,691.667 80.5,692.5C 82.4054,690.942 83.2387,691.275 83,693.5C 75.9674,697.271 68.4674,701.104 60.5,705C 61.1667,705.333 61.8333,705.667 62.5,706C 59.8333,707.333 57.1667,708.667 54.5,710C 55.1667,710.333 55.8333,710.667 56.5,711C 54.1065,712.829 51.7732,712.663 49.5,710.5C 47.6503,711.242 46.9836,712.242 47.5,713.5C 46.3801,712.167 45.0468,711.667 43.5,712C 43.8333,712.333 44.1667,712.667 44.5,713C 40.6327,714.987 40.6327,715.487 44.5,714.5C 45.7003,715.531 47.0337,716.365 48.5,717C 47.5,717.5 46.5,718 45.5,718.5C 43.6806,716.089 41.6806,715.922 39.5,718C 41.1667,719 42.8333,720 44.5,721C 43.5,721.5 42.5,722 41.5,722.5C 39.6806,720.089 37.6806,719.922 35.5,722C 37.3049,722.972 38.9716,724.139 40.5,725.5C 39.3318,726.906 39.6652,728.072 41.5,729C 40.4709,732.057 39.1376,732.057 37.5,729C 38.7112,728.107 38.7112,727.274 37.5,726.5C 36.5,727 35.5,727.5 34.5,728C 37,728.833 37.1667,730 35,731.5C 33.4931,730.465 31.9931,730.632 30.5,732C 32.1322,733.31 33.7988,733.81 35.5,733.5C 34.4688,734.7 33.6355,736.034 33,737.5C 30.5449,734.56 27.7116,733.893 24.5,735.5C 21.9952,733.747 19.3286,732.247 16.5,731C 16.8333,730.667 17.1667,730.333 17.5,730C 15.5,729 13.5,728 11.5,727C 12.3279,726.085 13.3279,725.419 14.5,725C 13.8333,724.667 13.1667,724.333 12.5,724C 9.82898,724.806 7.16231,724.639 4.5,723.5C 3.07797,722.075 1.4113,721.075 -0.5,720.5C -0.5,706.167 -0.5,691.833 -0.5,677.5C 7.23482,673.126 15.2348,669.626 23.5,667C 18.8333,669.333 14.1667,671.667 9.5,674C 18.0733,671.221 26.4066,667.554 34.5,663C 33.2888,662.107 33.2888,661.274 34.5,660.5C 36.444,659.811 38.444,659.311 40.5,659C 42.3087,656.591 44.6421,655.591 47.5,656C 46.1667,656.667 44.8333,657.333 43.5,658C 46.7025,657.914 49.7025,656.914 52.5,655C 51.5,654.667 50.5,654.333 49.5,654C 75.2885,642.427 101.622,632.594 128.5,624.5 Z"/></g>
<g><path style="opacity:1" fill="#9bbadd" d="M 118.5,687.5 C 119.239,687.369 119.906,687.536 120.5,688C 117.513,689.854 114.846,692.021 112.5,694.5C 108.91,694.543 106.243,696.043 104.5,699C 88.5915,708.92 73.2582,719.587 58.5,731C 58.7284,731.399 59.0618,731.565 59.5,731.5C 52.2054,737.155 44.8721,742.822 37.5,748.5C 36.2905,748.068 35.2905,747.401 34.5,746.5C 42.5853,739.944 50.9186,733.611 59.5,727.5C 60.3857,726.675 60.719,725.675 60.5,724.5C 63.634,723.759 66.634,722.759 69.5,721.5C 69.2965,719.61 69.9632,718.11 71.5,717C 76.293,714.949 80.293,711.949 83.5,708C 94.5739,700.131 106.241,693.297 118.5,687.5 Z"/></g>
<g><path style="opacity:1" fill="#80a0d2" d="M -0.5,323.5 C 26.717,376.956 58.217,427.623 94,475.5C 126.771,518.777 163.604,558.444 204.5,594.5C 205.167,595.833 206.167,596.833 207.5,597.5C 215.516,604.846 223.849,611.846 232.5,618.5C 234.64,621.165 237.14,623.498 240,625.5C 240.977,624.226 241.811,624.226 242.5,625.5C 242.062,625.435 241.728,625.601 241.5,626C 323.577,692.04 415.91,738.54 518.5,765.5C 517.71,766.401 516.71,767.068 515.5,767.5C 413.629,738.817 321.462,691.817 239,626.5C 237.414,627.376 235.914,628.376 234.5,629.5C 234.667,629.833 234.833,630.167 235,630.5C 317.579,695.705 410.079,741.705 512.5,768.5C 511.71,769.401 510.71,770.068 509.5,770.5C 408.659,742.913 317.325,697.08 235.5,633C 233.783,631.441 231.783,630.608 229.5,630.5C 228.797,628.284 227.464,626.451 225.5,625C 214.668,616.332 204.002,607.499 193.5,598.5C 192.738,596.738 191.404,595.738 189.5,595.5C 112.392,522.762 49.0585,439.762 -0.5,346.5C -0.5,345.5 -0.5,344.5 -0.5,343.5C 14.5516,370.599 30.3849,397.265 47,423.5C 87.7184,486.253 135.885,543.086 191.5,594C 194.5,594.667 197.5,594.667 200.5,594C 117.557,516.931 50.5572,428.097 -0.5,327.5C -0.5,326.167 -0.5,324.833 -0.5,323.5 Z"/></g>
<g><path style="opacity:1" fill="#e4ecf5" d="M 196.5,597.5 C 198.833,597.5 201.167,597.5 203.5,597.5C 213.483,605.976 223.65,614.309 234,622.5C 234.688,623.332 234.521,623.998 233.5,624.5C 232.393,625.022 231.226,625.355 230,625.5C 225.638,623.06 221.471,620.227 217.5,617C 210.257,610.584 203.257,604.084 196.5,597.5 Z"/></g>
<g><path style="opacity:1" fill="#292664" d="M 203.5,597.5 C 201.167,597.5 198.833,597.5 196.5,597.5C 195.244,597.539 194.244,597.039 193.5,596C 196.5,595.333 199.5,595.333 202.5,596C 203.056,596.383 203.389,596.883 203.5,597.5 Z"/></g>
<g><path style="opacity:1" fill="#6695cb" d="M 112.5,694.5 C 94.696,706.574 77.0293,718.908 59.5,731.5C 59.0618,731.565 58.7284,731.399 58.5,731C 73.2582,719.587 88.5915,708.92 104.5,699C 106.243,696.043 108.91,694.543 112.5,694.5 Z"/></g>
<g><path style="opacity:1" fill="#2a2663" d="M -0.5,720.5 C 1.4113,721.075 3.07797,722.075 4.5,723.5C 12.5253,730.186 20.8587,736.519 29.5,742.5C 30.9448,744.063 32.6115,745.396 34.5,746.5C 35.2905,747.401 36.2905,748.068 37.5,748.5C 99.4358,797.498 166.102,839.498 237.5,874.5C 241.849,877.341 246.516,879.674 251.5,881.5C 252.833,882.167 254.167,882.833 255.5,883.5C 259.083,885.36 262.749,887.027 266.5,888.5C 312.139,909.16 359.806,922.827 409.5,929.5C 421.95,931.488 434.617,932.821 447.5,933.5C 504.585,935.449 559.918,926.615 613.5,907C 633.743,899.252 653.743,890.919 673.5,882C 724.167,856.333 774.833,830.667 825.5,805C 840.288,797.937 855.288,791.437 870.5,785.5C 878.284,782.139 885.951,778.805 893.5,775.5C 923.725,764.527 954.725,756.527 986.5,751.5C 994.683,750.482 1002.68,749.149 1010.5,747.5C 1076.49,746.547 1142.49,746.214 1208.5,746.5C 1208.5,749.167 1208.5,751.833 1208.5,754.5C 1150.83,754.333 1093.17,754.5 1035.5,755C 1015.32,757.252 995.319,760.586 975.5,765C 920.023,778.936 866.69,798.603 815.5,824C 760.68,852.244 705.014,878.578 648.5,903C 578.978,931.476 506.644,943.976 431.5,940.5C 420.16,939.569 408.826,938.235 397.5,936.5C 347.767,928.922 299.767,915.256 253.5,895.5C 249.584,892.743 245.25,890.743 240.5,889.5C 240.158,888.662 239.492,888.328 238.5,888.5C 234.355,886.264 230.022,884.264 225.5,882.5C 220.693,879.595 215.693,876.928 210.5,874.5C 168.375,852.611 127.708,828.445 88.5,802C 67.6575,787.311 46.9909,772.477 26.5,757.5C 25.8333,756.167 24.8333,755.167 23.5,754.5C 15.7829,748.115 7.78286,742.115 -0.5,736.5C -0.5,731.167 -0.5,725.833 -0.5,720.5 Z"/></g>
<g><path style="opacity:1" fill="#99d9f8" d="M 839.5,719.5 C 843.099,720.344 846.766,720.677 850.5,720.5C 854.395,721.462 858.061,722.796 861.5,724.5C 813.246,725.417 767.579,736.751 724.5,758.5C 723.702,758.957 723.369,759.624 723.5,760.5C 722.127,760.343 720.793,760.51 719.5,761C 720.056,761.383 720.389,761.883 720.5,762.5C 719.417,762.461 718.417,762.127 717.5,761.5C 703.539,768.83 689.872,776.497 676.5,784.5C 675.262,784.81 675.262,785.31 676.5,786C 679.167,786.333 681.833,786.667 684.5,787C 679.833,787.333 675.167,787.667 670.5,788C 678.829,788.718 687.163,789.384 695.5,790C 685.832,790.044 676.165,790.044 666.5,790C 665.672,790.915 664.672,791.581 663.5,792C 666.5,792.333 669.5,792.667 672.5,793C 668.5,793.333 664.5,793.667 660.5,794C 667.155,794.787 673.821,795.453 680.5,796C 674.486,796.576 668.486,796.41 662.5,795.5C 659.795,795.316 657.462,795.983 655.5,797.5C 654.508,797.328 653.842,797.662 653.5,798.5C 647.205,802.141 641.205,806.141 635.5,810.5C 595.384,837.399 555.384,864.566 515.5,892C 492.936,906.11 470.27,919.943 447.5,933.5C 434.617,932.821 421.95,931.488 409.5,929.5C 411.857,929.663 414.19,929.497 416.5,929C 441.642,916.6 465.976,902.933 489.5,888C 527.425,862.55 564.758,836.383 601.5,809.5C 603.434,808.89 605.101,807.89 606.5,806.5C 609.563,804.975 612.23,802.975 614.5,800.5C 610.882,799.534 605.882,798.701 599.5,798C 606.337,798.204 613.004,798.037 619.5,797.5C 620.167,797.5 620.5,797.167 620.5,796.5C 621.492,796.672 622.158,796.338 622.5,795.5C 623.71,795.068 624.71,794.401 625.5,793.5C 626.167,793.5 626.5,793.167 626.5,792.5C 627.492,792.672 628.158,792.338 628.5,791.5C 629.492,791.672 630.158,791.338 630.5,790.5C 631.167,790.5 631.5,790.167 631.5,789.5C 632.239,789.631 632.906,789.464 633.5,789C 632.263,788.768 631.263,788.268 630.5,787.5C 631.492,787.672 632.158,787.338 632.5,786.5C 634.415,786.784 636.081,786.451 637.5,785.5C 638.492,785.672 639.158,785.338 639.5,784.5C 640.492,784.672 641.158,784.338 641.5,783.5C 642.492,783.672 643.158,783.338 643.5,782.5C 644.338,782.158 644.672,781.492 644.5,780.5C 647.016,780.245 649.35,779.411 651.5,778C 665.401,769.886 679.401,762.052 693.5,754.5C 695.38,754.771 696.713,754.104 697.5,752.5C 709.366,747.403 721.366,742.569 733.5,738C 767.939,725.872 803.272,719.706 839.5,719.5 Z"/></g>
<g><path style="opacity:1" fill="#fdfdfe" d="M 861.5,724.5 C 902.164,738.331 943.831,747.331 986.5,751.5C 954.725,756.527 923.725,764.527 893.5,775.5C 882.491,777.085 871.491,778.751 860.5,780.5C 813.811,780.545 768.144,773.878 723.5,760.5C 723.369,759.624 723.702,758.957 724.5,758.5C 767.579,736.751 813.246,725.417 861.5,724.5 Z"/></g>
<g><path style="opacity:1" fill="#bae3f8" d="M 872.5,722.5 C 886.986,724.03 901.32,726.53 915.5,730C 906.839,729.169 898.173,728.003 889.5,726.5C 888.274,726.52 887.274,726.853 886.5,727.5C 881.607,726.204 876.94,724.538 872.5,722.5 Z"/></g>
<g><path style="opacity:1" fill="#80a0d2" d="M -0.5,379.5 C 14.4762,404.107 29.9762,428.441 46,452.5C 81.9704,504.805 123.47,552.638 170.5,596C 171.448,596.483 172.448,596.649 173.5,596.5C 172.506,598.854 173.506,599.854 176.5,599.5C 181.195,606.52 187.195,612.187 194.5,616.5C 199.305,621.134 204.305,625.634 209.5,630C 212.222,632.358 215.222,634.191 218.5,635.5C 219.909,637.417 221.576,639.25 223.5,641C 306.455,704.972 399.121,749.472 501.5,774.5C 500.486,775.674 499.153,776.34 497.5,776.5C 405.481,752.318 320.814,712.818 243.5,658C 234.431,650.149 224.764,643.315 214.5,637.5C 214.141,635.629 213.141,634.129 211.5,633C 198.043,622.709 185.043,611.875 172.5,600.5C 171.738,598.738 170.404,597.738 168.5,597.5C 101.805,533.669 45.472,462.003 -0.5,382.5C -0.5,381.5 -0.5,380.5 -0.5,379.5 Z"/></g>
<g><path style="opacity:1" fill="#38336d" d="M 632.5,731.5 C 633.568,730.566 634.901,730.232 636.5,730.5C 656.686,738.229 677.019,745.562 697.5,752.5C 696.713,754.104 695.38,754.771 693.5,754.5C 673.124,747.154 652.79,739.487 632.5,731.5 Z"/></g>
<g><path style="opacity:1" fill="#fdfdfe" d="M 632.5,731.5 C 652.79,739.487 673.124,747.154 693.5,754.5C 679.401,762.052 665.401,769.886 651.5,778C 649.35,779.411 647.016,780.245 644.5,780.5C 615.314,776.719 586.481,771.052 558,763.5C 556.624,763.316 555.791,762.649 555.5,761.5C 580.548,749.928 606.215,739.928 632.5,731.5 Z"/></g>
<g><path style="opacity:1" fill="#6e6c95" d="M 1432.5,746.5 C 1446.32,745.504 1460.32,745.171 1474.5,745.5C 1474.81,748.713 1474.48,751.713 1473.5,754.5C 1473.5,751.833 1473.5,749.167 1473.5,746.5C 1459.83,746.5 1446.17,746.5 1432.5,746.5 Z"/></g>
<g><path style="opacity:1" fill="#272361" d="M 1236.5,746.5 C 1271.17,746.5 1305.83,746.5 1340.5,746.5C 1340.5,749.167 1340.5,751.833 1340.5,754.5C 1305.83,754.5 1271.17,754.5 1236.5,754.5C 1236.5,751.833 1236.5,749.167 1236.5,746.5 Z"/></g>
<g><path style="opacity:1" fill="#272361" d="M 1366.5,746.5 C 1382.17,746.5 1397.83,746.5 1413.5,746.5C 1413.5,749.167 1413.5,751.833 1413.5,754.5C 1397.83,754.5 1382.17,754.5 1366.5,754.5C 1366.5,751.833 1366.5,749.167 1366.5,746.5 Z"/></g>
<g><path style="opacity:1" fill="#272361" d="M 1432.5,746.5 C 1446.17,746.5 1459.83,746.5 1473.5,746.5C 1473.5,749.167 1473.5,751.833 1473.5,754.5C 1459.83,754.5 1446.17,754.5 1432.5,754.5C 1432.5,751.833 1432.5,749.167 1432.5,746.5 Z"/></g>
<g><path style="opacity:1" fill="#d9e4f1" d="M -0.5,736.5 C 7.78286,742.115 15.7829,748.115 23.5,754.5C 23.5,754.833 23.5,755.167 23.5,755.5C 21.6917,756.907 19.6917,758.074 17.5,759C 11.9958,765.671 5.99578,771.837 -0.5,777.5C -0.5,763.833 -0.5,750.167 -0.5,736.5 Z"/></g>
<g><path style="opacity:1" fill="#fdfdfe" d="M 26.5,757.5 C 46.9909,772.477 67.6575,787.311 88.5,802C 127.708,828.445 168.375,852.611 210.5,874.5C 173.52,877.208 137.52,872.042 102.5,859C 64.7242,845.125 30.3908,825.625 -0.5,800.5C -0.5,794.167 -0.5,787.833 -0.5,781.5C 2.20724,779.157 4.8739,776.823 7.5,774.5C 14.0627,769.058 20.396,763.391 26.5,757.5 Z"/></g>
<g><path style="opacity:1" fill="#3a356e" d="M 723.5,760.5 C 768.144,773.878 813.811,780.545 860.5,780.5C 853.721,781.983 846.721,782.65 839.5,782.5C 798.968,780.781 759.301,774.114 720.5,762.5C 720.389,761.883 720.056,761.383 719.5,761C 720.793,760.51 722.127,760.343 723.5,760.5 Z"/></g>
<g><path style="opacity:1" fill="#fbfcfd" d="M 720.5,762.5 C 759.301,774.114 798.968,780.781 839.5,782.5C 838.737,783.268 837.737,783.768 836.5,784C 799.245,787.386 761.912,788.886 724.5,788.5C 708.556,786.973 692.556,785.64 676.5,784.5C 689.872,776.497 703.539,768.83 717.5,761.5C 718.417,762.127 719.417,762.461 720.5,762.5 Z"/></g>
<g><path style="opacity:1" fill="#a9c4e2" d="M 23.5,755.5 C 23.6107,756.117 23.944,756.617 24.5,757C 18.7199,762.294 12.8865,767.461 7,772.5C 6.30831,773.437 6.47498,774.103 7.5,774.5C 4.8739,776.823 2.20724,779.157 -0.5,781.5C -0.5,780.167 -0.5,778.833 -0.5,777.5C 5.99578,771.837 11.9958,765.671 17.5,759C 19.6917,758.074 21.6917,756.907 23.5,755.5 Z"/></g>
<g><path style="opacity:1" fill="#7aa3d2" d="M 23.5,754.5 C 24.8333,755.167 25.8333,756.167 26.5,757.5C 20.396,763.391 14.0627,769.058 7.5,774.5C 6.47498,774.103 6.30831,773.437 7,772.5C 12.8865,767.461 18.7199,762.294 24.5,757C 23.944,756.617 23.6107,756.117 23.5,755.5C 23.5,755.167 23.5,754.833 23.5,754.5 Z"/></g>
<g><path style="opacity:1" fill="#edf2f8" d="M 547.5,766.5 C 577.574,774.914 608.241,780.914 639.5,784.5C 639.158,785.338 638.492,785.672 637.5,785.5C 605.78,781.926 574.447,776.259 543.5,768.5C 544.287,766.896 545.62,766.229 547.5,766.5 Z"/></g>
<g><path style="opacity:1" fill="#ecf0f8" d="M 541.5,769.5 C 571.415,777.298 601.748,782.965 632.5,786.5C 632.158,787.338 631.492,787.672 630.5,787.5C 598.868,784.508 567.868,778.841 537.5,770.5C 538.708,769.766 540.041,769.433 541.5,769.5 Z"/></g>
<g><path style="opacity:1" fill="#85a4d4" d="M 555.5,761.5 C 555.791,762.649 556.624,763.316 558,763.5C 586.481,771.052 615.314,776.719 644.5,780.5C 644.672,781.492 644.338,782.158 643.5,782.5C 633.912,780.569 624.246,779.069 614.5,778C 593.039,773.799 571.706,769.299 550.5,764.5C 552.22,763.692 553.887,762.692 555.5,761.5 Z"/></g>
<g><path style="opacity:1" fill="#82a2d3" d="M 549.5,764.5 C 556.086,767.407 563.086,769.573 570.5,771C 593.99,776.265 617.657,780.432 641.5,783.5C 641.158,784.338 640.492,784.672 639.5,784.5C 608.241,780.914 577.574,774.914 547.5,766.5C 548.167,765.833 548.833,765.167 549.5,764.5 Z"/></g>
<g><path style="opacity:1" fill="#80a0d2" d="M 537.5,770.5 C 567.868,778.841 598.868,784.508 630.5,787.5C 631.263,788.268 632.263,788.768 633.5,789C 632.906,789.464 632.239,789.631 631.5,789.5C 598.804,785.782 566.471,780.116 534.5,772.5C 535.29,771.599 536.29,770.932 537.5,770.5 Z"/></g>
<g><path style="opacity:1" fill="#80a0d2" d="M 541.5,769.5 C 541.842,768.662 542.508,768.328 543.5,768.5C 574.447,776.259 605.78,781.926 637.5,785.5C 636.081,786.451 634.415,786.784 632.5,786.5C 601.748,782.965 571.415,777.298 541.5,769.5 Z"/></g>
<g><path style="opacity:1" fill="#e9eef7" d="M 549.5,764.5 C 549.833,764.5 550.167,764.5 550.5,764.5C 571.706,769.299 593.039,773.799 614.5,778C 624.246,779.069 633.912,780.569 643.5,782.5C 643.158,783.338 642.492,783.672 641.5,783.5C 617.657,780.432 593.99,776.265 570.5,771C 563.086,769.573 556.086,767.407 549.5,764.5 Z"/></g>
<g><path style="opacity:1" fill="#7094cc" d="M 893.5,775.5 C 885.951,778.805 878.284,782.139 870.5,785.5C 870.083,784.876 869.416,784.543 868.5,784.5C 819.324,795.202 769.658,802.535 719.5,806.5C 715.931,804.191 711.931,803.025 707.5,803C 692.514,802.035 677.514,801.368 662.5,801C 675.5,800.667 688.5,800.333 701.5,800C 685.49,799.658 669.49,799.158 653.5,798.5C 653.842,797.662 654.508,797.328 655.5,797.5C 682.834,798.366 710.168,798.866 737.5,799C 725.53,797.727 713.53,796.727 701.5,796C 717.176,795.617 732.843,795.617 748.5,796C 730.855,794.862 713.188,794.196 695.5,794C 716.5,793.667 737.5,793.333 758.5,793C 747.125,792.856 735.792,792.189 724.5,791C 737.5,790.667 750.5,790.333 763.5,790C 750.327,789.831 737.327,789.331 724.5,788.5C 761.912,788.886 799.245,787.386 836.5,784C 837.737,783.768 838.737,783.268 839.5,782.5C 846.721,782.65 853.721,781.983 860.5,780.5C 871.491,778.751 882.491,777.085 893.5,775.5 Z"/></g>
<g><path style="opacity:1" fill="#7d9ed1" d="M 531.5,773.5 C 563.894,781.844 596.894,787.511 630.5,790.5C 630.158,791.338 629.492,791.672 628.5,791.5C 594.847,788.113 561.514,782.78 528.5,775.5C 529.29,774.599 530.29,773.932 531.5,773.5 Z"/></g>
<g><path style="opacity:1" fill="#e6ecf6" d="M 534.5,772.5 C 566.471,780.116 598.804,785.782 631.5,789.5C 631.5,790.167 631.167,790.5 630.5,790.5C 596.894,787.511 563.894,781.844 531.5,773.5C 532.391,772.89 533.391,772.557 534.5,772.5 Z"/></g>
<g><path style="opacity:1" fill="#e6ecf6" d="M 527.5,775.5 C 527.833,775.5 528.167,775.5 528.5,775.5C 561.514,782.78 594.847,788.113 628.5,791.5C 628.158,792.338 627.492,792.672 626.5,792.5C 595.864,790.1 565.53,785.6 535.5,779C 532.334,778.678 529.667,777.511 527.5,775.5 Z"/></g>
<g><path style="opacity:1" fill="#80a0d2" d="M 527.5,775.5 C 529.667,777.511 532.334,778.678 535.5,779C 565.53,785.6 595.864,790.1 626.5,792.5C 626.5,793.167 626.167,793.5 625.5,793.5C 608.402,792.653 591.402,790.82 574.5,788C 557.129,784.877 539.796,781.71 522.5,778.5C 524.22,777.692 525.887,776.692 527.5,775.5 Z"/></g>
<g><path style="opacity:1" fill="#fefefe" d="M 870.5,785.5 C 855.288,791.437 840.288,797.937 825.5,805C 774.833,830.667 724.167,856.333 673.5,882C 653.743,890.919 633.743,899.252 613.5,907C 559.918,926.615 504.585,935.449 447.5,933.5C 470.27,919.943 492.936,906.11 515.5,892C 555.384,864.566 595.384,837.399 635.5,810.5C 663.713,810.404 691.713,809.071 719.5,806.5C 769.658,802.535 819.324,795.202 868.5,784.5C 869.416,784.543 870.083,784.876 870.5,785.5 Z"/></g>
<g><path style="opacity:1" fill="#e5ebf5" d="M 521.5,778.5 C 521.833,778.5 522.167,778.5 522.5,778.5C 539.796,781.71 557.129,784.877 574.5,788C 591.402,790.82 608.402,792.653 625.5,793.5C 624.71,794.401 623.71,795.068 622.5,795.5C 588.897,792.342 555.564,787.175 522.5,780C 521.944,779.617 521.611,779.117 521.5,778.5 Z"/></g>
<g><path style="opacity:1" fill="#7d9ed1" d="M 521.5,778.5 C 521.611,779.117 521.944,779.617 522.5,780C 555.564,787.175 588.897,792.342 622.5,795.5C 622.158,796.338 621.492,796.672 620.5,796.5C 586.293,793.632 552.626,788.299 519.5,780.5C 520.167,779.833 520.833,779.167 521.5,778.5 Z"/></g>
<g><path style="opacity:1" fill="#e7edf6" d="M 513.5,783.5 C 540.85,789.622 568.516,794.122 596.5,797C 568.187,795.295 540.187,791.461 512.5,785.5C 510.207,784.699 510.54,784.032 513.5,783.5 Z"/></g>
<g><path style="opacity:1" fill="#e8edf6" d="M 509.5,786.5 C 532.453,791.657 555.786,795.324 579.5,797.5C 578.432,798.434 577.099,798.768 575.5,798.5C 552.931,796.467 530.597,793.133 508.5,788.5C 503.521,787.754 503.854,787.088 509.5,786.5 Z"/></g>
<g><path style="opacity:1" fill="#dfe7f3" d="M 519.5,780.5 C 552.626,788.299 586.293,793.632 620.5,796.5C 620.5,797.167 620.167,797.5 619.5,797.5C 584.461,794.882 549.794,789.882 515.5,782.5C 516.514,781.326 517.847,780.66 519.5,780.5 Z"/></g>
<g><path style="opacity:1" fill="#7d9ed1" d="M 508.5,788.5 C 530.597,793.133 552.931,796.467 575.5,798.5C 574.432,799.434 573.099,799.768 571.5,799.5C 549.19,797.298 527.19,793.965 505.5,789.5C 506.791,789.737 507.791,789.404 508.5,788.5 Z"/></g>
<g><path style="opacity:1" fill="#e9eff7" d="M 500.5,789.5 C 502.167,789.5 503.833,789.5 505.5,789.5C 527.19,793.965 549.19,797.298 571.5,799.5C 570.791,800.404 569.791,800.737 568.5,800.5C 545.992,798.565 523.659,795.398 501.5,791C 500.944,790.617 500.611,790.117 500.5,789.5 Z"/></g>
<g><path style="opacity:1" fill="#7d9ed1" d="M 513.5,783.5 C 513.842,782.662 514.508,782.328 515.5,782.5C 549.794,789.882 584.461,794.882 619.5,797.5C 613.004,798.037 606.337,798.204 599.5,798C 605.882,798.701 610.882,799.534 614.5,800.5C 602.746,800.28 591.079,799.28 579.5,797.5C 555.786,795.324 532.453,791.657 509.5,786.5C 510.791,786.737 511.791,786.404 512.5,785.5C 540.187,791.461 568.187,795.295 596.5,797C 568.516,794.122 540.85,789.622 513.5,783.5 Z"/></g>
<g><path style="opacity:1" fill="#86a5d4" d="M 676.5,784.5 C 692.556,785.64 708.556,786.973 724.5,788.5C 737.327,789.331 750.327,789.831 763.5,790C 750.5,790.333 737.5,790.667 724.5,791C 735.792,792.189 747.125,792.856 758.5,793C 737.5,793.333 716.5,793.667 695.5,794C 713.188,794.196 730.855,794.862 748.5,796C 732.843,795.617 717.176,795.617 701.5,796C 713.53,796.727 725.53,797.727 737.5,799C 710.168,798.866 682.834,798.366 655.5,797.5C 657.462,795.983 659.795,795.316 662.5,795.5C 668.486,796.41 674.486,796.576 680.5,796C 673.821,795.453 667.155,794.787 660.5,794C 664.5,793.667 668.5,793.333 672.5,793C 669.5,792.667 666.5,792.333 663.5,792C 664.672,791.581 665.672,790.915 666.5,790C 676.165,790.044 685.832,790.044 695.5,790C 687.163,789.384 678.829,788.718 670.5,788C 675.167,787.667 679.833,787.333 684.5,787C 681.833,786.667 679.167,786.333 676.5,786C 675.262,785.31 675.262,784.81 676.5,784.5 Z"/></g>
<g><path style="opacity:1" fill="#7c9dd1" d="M 492.5,794.5 C 492.842,793.662 493.508,793.328 494.5,793.5C 516.353,797.482 538.353,800.482 560.5,802.5C 559.081,803.451 557.415,803.784 555.5,803.5C 534.261,801.888 513.261,798.888 492.5,794.5 Z"/></g>
<g><path style="opacity:1" fill="#e4eaf5" d="M 494.5,793.5 C 494.842,792.662 495.508,792.328 496.5,792.5C 518.745,796.157 541.079,799.157 563.5,801.5C 562.791,802.404 561.791,802.737 560.5,802.5C 538.353,800.482 516.353,797.482 494.5,793.5 Z"/></g>
<g><path style="opacity:1" fill="#7c9ed1" d="M 500.5,789.5 C 500.611,790.117 500.944,790.617 501.5,791C 523.659,795.398 545.992,798.565 568.5,800.5C 567.081,801.451 565.415,801.784 563.5,801.5C 541.079,799.157 518.745,796.157 496.5,792.5C 497.926,791.659 499.26,790.659 500.5,789.5 Z"/></g>
<g><path style="opacity:1" fill="#fefefe" d="M 488.5,797.5 C 508.487,801.83 528.82,804.497 549.5,805.5C 550.568,806.434 551.901,806.768 553.5,806.5C 569.459,808.112 585.459,809.112 601.5,809.5C 564.758,836.383 527.425,862.55 489.5,888C 465.976,902.933 441.642,916.6 416.5,929C 414.19,929.497 411.857,929.663 409.5,929.5C 359.806,922.827 312.139,909.16 266.5,888.5C 266.918,887.778 267.584,887.278 268.5,887C 297.144,883.09 324.811,875.923 351.5,865.5C 361.801,861.678 371.801,857.345 381.5,852.5C 391.812,847.678 402.145,842.845 412.5,838C 437.771,824.2 463.105,810.7 488.5,797.5 Z"/></g>
<g><path style="opacity:1" fill="#e7edf6" d="M 492.5,794.5 C 513.261,798.888 534.261,801.888 555.5,803.5C 554.791,804.404 553.791,804.737 552.5,804.5C 532.439,802.604 512.439,800.271 492.5,797.5C 488.582,796.525 488.582,795.525 492.5,794.5 Z"/></g>
<g><path style="opacity:1" fill="#82a2d3" d="M 606.5,806.5 C 605.101,807.89 603.434,808.89 601.5,809.5C 585.459,809.112 569.459,808.112 553.5,806.5C 555.473,805.837 557.639,805.504 560,805.5C 571.144,806.804 582.31,807.304 593.5,807C 582.807,806.254 572.14,805.254 561.5,804C 565.5,803.667 569.5,803.333 573.5,803C 572.167,802.667 570.833,802.333 569.5,802C 573.5,801.667 577.5,801.333 581.5,801C 579.833,800.667 578.167,800.333 576.5,800C 587.861,799.891 599.194,800.557 610.5,802C 603.489,802.566 596.489,802.4 589.5,801.5C 587.5,801.667 585.5,801.833 583.5,802C 590.475,802.921 597.475,803.588 604.5,804C 595.161,804.166 585.827,804.166 576.5,804C 586.499,804.944 596.499,805.778 606.5,806.5 Z"/></g>
<g><path style="opacity:1" fill="#4f9fd5" d="M -0.5,800.5 C 30.3908,825.625 64.7242,845.125 102.5,859C 137.52,872.042 173.52,877.208 210.5,874.5C 215.693,876.928 220.693,879.595 225.5,882.5C 197.498,883.194 169.831,880.528 142.5,874.5C 130.18,871.168 117.847,867.668 105.5,864C 101.52,862.034 97.5197,860.034 93.5,858C 85.8141,856.313 78.4807,853.813 71.5,850.5C 45.5276,839.527 21.5276,825.527 -0.5,808.5C -0.5,805.833 -0.5,803.167 -0.5,800.5 Z"/></g>
<g><path style="opacity:1" fill="#87a5d4" d="M 488.5,797.5 C 489.833,797.5 491.167,797.5 492.5,797.5C 512.439,800.271 532.439,802.604 552.5,804.5C 551.791,805.404 550.791,805.737 549.5,805.5C 528.82,804.497 508.487,801.83 488.5,797.5 Z"/></g>
<g><path style="opacity:1" fill="#b9cae6" d="M 579.5,797.5 C 591.079,799.28 602.746,800.28 614.5,800.5C 612.23,802.975 609.563,804.975 606.5,806.5C 596.499,805.778 586.499,804.944 576.5,804C 585.827,804.166 595.161,804.166 604.5,804C 597.475,803.588 590.475,802.921 583.5,802C 585.5,801.833 587.5,801.667 589.5,801.5C 596.489,802.4 603.489,802.566 610.5,802C 599.194,800.557 587.861,799.891 576.5,800C 578.167,800.333 579.833,800.667 581.5,801C 577.5,801.333 573.5,801.667 569.5,802C 570.833,802.333 572.167,802.667 573.5,803C 569.5,803.333 565.5,803.667 561.5,804C 572.14,805.254 582.807,806.254 593.5,807C 582.31,807.304 571.144,806.804 560,805.5C 557.639,805.504 555.473,805.837 553.5,806.5C 551.901,806.768 550.568,806.434 549.5,805.5C 550.791,805.737 551.791,805.404 552.5,804.5C 553.791,804.737 554.791,804.404 555.5,803.5C 557.415,803.784 559.081,803.451 560.5,802.5C 561.791,802.737 562.791,802.404 563.5,801.5C 565.415,801.784 567.081,801.451 568.5,800.5C 569.791,800.737 570.791,800.404 571.5,799.5C 573.099,799.768 574.432,799.434 575.5,798.5C 577.099,798.768 578.432,798.434 579.5,797.5 Z"/></g>
<g><path style="opacity:1" fill="#7a9cd0" d="M 653.5,798.5 C 669.49,799.158 685.49,799.658 701.5,800C 688.5,800.333 675.5,800.667 662.5,801C 677.514,801.368 692.514,802.035 707.5,803C 711.931,803.025 715.931,804.191 719.5,806.5C 691.713,809.071 663.713,810.404 635.5,810.5C 641.205,806.141 647.205,802.141 653.5,798.5 Z"/></g>
<g><path style="opacity:1" fill="#e7f2f9" d="M 52.5,864.5 C 34.5097,858.671 16.8431,852.004 -0.5,844.5C -0.5,842.167 -0.5,839.833 -0.5,837.5C 1.30839,837.509 2.97506,837.009 4.5,836C 3.36589,834.984 3.69923,834.317 5.5,834C 4.83333,833.667 4.16667,833.333 3.5,833C 5.22436,832.552 5.89103,831.718 5.5,830.5C 7.16667,831.333 8.83333,832.167 10.5,833C 9.5,834 8.5,835 7.5,836C 13.6209,838.56 19.6209,841.394 25.5,844.5C 27.0778,843.36 28.7445,842.86 30.5,843C 30.1667,843.333 29.8333,843.667 29.5,844C 30.8333,844.667 32.1667,845.333 33.5,846C 30.8333,846.667 30.8333,847.333 33.5,848C 32.8333,848.333 32.1667,848.667 31.5,849C 36.1306,851.22 40.7973,852.553 45.5,853C 43.6228,854.185 41.6228,855.185 39.5,856C 41.8333,857 44.1667,858 46.5,859C 45.8333,859.333 45.1667,859.667 44.5,860C 48.0901,861.53 51.7568,862.864 55.5,864C 54.552,864.483 53.552,864.649 52.5,864.5 Z"/></g>
<g><path style="opacity:1" fill="#f7fbfd" d="M -0.5,844.5 C 16.8431,852.004 34.5097,858.671 52.5,864.5C 59.6162,867.289 66.9495,869.789 74.5,872C 76.0657,872.765 77.3991,872.598 78.5,871.5C 81.5983,871.413 81.9316,871.913 79.5,873C 83.6445,874.244 87.8111,875.411 92,876.5C 94.2265,875.637 96.3932,874.637 98.5,873.5C 99.6956,873.846 99.6956,874.346 98.5,875C 97.1667,875.667 95.8333,876.333 94.5,877C 97.361,877.085 100.028,876.251 102.5,874.5C 103.696,874.846 103.696,875.346 102.5,876C 101.167,876.667 99.8333,877.333 98.5,878C 101.647,879.42 104.813,879.587 108,878.5C 109.762,878.944 109.595,879.444 107.5,880C 109.235,880.651 110.902,880.485 112.5,879.5C 115.214,882.695 118.881,883.028 123.5,880.5C 123.833,880.667 124.167,880.833 124.5,881C 123.672,881.915 122.672,882.581 121.5,883C 124.961,883.874 127.961,883.04 130.5,880.5C 130.762,882.132 129.762,883.299 127.5,884C 142.712,886.894 158.046,888.727 173.5,889.5C 195.833,892.141 218.166,892.141 240.5,889.5C 245.25,890.743 249.584,892.743 253.5,895.5C 191.142,902.232 129.808,896.732 69.5,879C 45.8256,871.656 22.4922,863.489 -0.5,854.5C -0.5,851.167 -0.5,847.833 -0.5,844.5 Z"/></g>
<g><path style="opacity:1" fill="#67acdb" d="M 413.5,819.5 C 412.942,820.79 411.942,821.623 410.5,822C 411.711,822.893 411.711,823.726 410.5,824.5C 405.5,827 400.5,829.5 395.5,832C 396.308,832.308 396.975,832.808 397.5,833.5C 393.367,835.802 389.367,838.302 385.5,841C 385.833,841.333 386.167,841.667 386.5,842C 383.52,844.651 380.853,847.651 378.5,851C 379.244,852.039 380.244,852.539 381.5,852.5C 371.801,857.345 361.801,861.678 351.5,865.5C 348.813,865.336 346.146,865.503 343.5,866C 339.511,866.81 336.511,868.31 334.5,870.5C 329.667,869.499 325,869.499 320.5,870.5C 319.304,870.154 319.304,869.654 320.5,869C 317.773,868.182 315.106,868.348 312.5,869.5C 314.5,870.333 316.5,871.167 318.5,872C 316.782,872.346 315.115,872.846 313.5,873.5C 312.038,872.529 310.705,872.862 309.5,874.5C 308.033,874.277 306.533,873.944 305,873.5C 304.5,874 304,874.5 303.5,875C 304.833,875.333 306.167,875.667 307.5,876C 291.253,878.549 273.92,881.049 255.5,883.5C 254.167,882.833 252.833,882.167 251.5,881.5C 259.374,880.494 267.374,879.327 275.5,878C 275.793,875.692 274.959,873.526 273,871.5C 270.045,871.678 266.879,871.678 263.5,871.5C 278.48,868.507 293.48,865.007 308.5,861C 344.583,849.808 379.583,835.974 413.5,819.5 Z"/></g>
<g><path style="opacity:1" fill="#daebf6" d="M 78.5,871.5 C 77.3991,872.598 76.0657,872.765 74.5,872C 66.9495,869.789 59.6162,867.289 52.5,864.5C 53.552,864.649 54.552,864.483 55.5,864C 51.7568,862.864 48.0901,861.53 44.5,860C 45.1667,859.667 45.8333,859.333 46.5,859C 44.1667,858 41.8333,857 39.5,856C 41.6228,855.185 43.6228,854.185 45.5,853C 40.7973,852.553 36.1306,851.22 31.5,849C 32.1667,848.667 32.8333,848.333 33.5,848C 30.8333,847.333 30.8333,846.667 33.5,846C 32.1667,845.333 30.8333,844.667 29.5,844C 29.8333,843.667 30.1667,843.333 30.5,843C 28.7445,842.86 27.0778,843.36 25.5,844.5C 19.6209,841.394 13.6209,838.56 7.5,836C 8.5,835 9.5,834 10.5,833C 8.83333,832.167 7.16667,831.333 5.5,830.5C 5.89103,831.718 5.22436,832.552 3.5,833C 4.16667,833.333 4.83333,833.667 5.5,834C 3.69923,834.317 3.36589,834.984 4.5,836C 2.97506,837.009 1.30839,837.509 -0.5,837.5C -0.5,830.5 -0.5,823.5 -0.5,816.5C 0.949785,815.342 1.94979,815.842 2.5,818C 7.43845,821.108 12.1051,823.775 16.5,826C 17.1258,826.75 17.6258,827.584 18,828.5C 19.016,827.366 19.6827,827.699 20,829.5C 21.016,828.366 21.6827,828.699 22,830.5C 23,830.5 24,830.5 25,830.5C 26.8562,832.737 26.3562,834.571 23.5,836C 25.7516,835.95 27.4182,834.784 28.5,832.5C 28.9106,833.262 29.0773,834.262 29,835.5C 30.016,834.366 30.6827,834.699 31,836.5C 31.3333,836.167 31.6667,835.833 32,835.5C 33.4194,836.46 34.9194,837.293 36.5,838C 35.1669,839.84 35.3335,840.34 37,839.5C 38.1597,841.797 39.1597,841.464 40,838.5C 40.3173,840.301 40.984,840.634 42,839.5C 42,840.833 42,842.167 42,843.5C 42.6667,842.833 43.3333,842.167 44,841.5C 44.4482,843.224 45.2815,843.891 46.5,843.5C 45.3523,845.149 44.019,846.649 42.5,848C 44.3867,848.163 45.8867,847.329 47,845.5C 47.3333,846.167 47.6667,846.833 48,847.5C 49,846.167 50,844.833 51,843.5C 51.4922,844.549 51.3256,845.549 50.5,846.5C 51.1667,846.833 51.8333,847.167 52.5,847.5C 51.6872,848.814 50.6872,849.981 49.5,851C 50.1667,851.667 50.8333,851.667 51.5,851C 52.7875,849.59 53.9542,848.09 55,846.5C 55.4922,847.549 55.3256,848.549 54.5,849.5C 54.8457,850.696 55.3457,850.696 56,849.5C 55.9227,850.738 56.0894,851.738 56.5,852.5C 57.5836,851.335 58.4169,850.002 59,848.5C 59.5946,849.899 59.4279,851.232 58.5,852.5C 61.0782,852.677 61.0782,853.843 58.5,856C 58.8333,856.167 59.1667,856.333 59.5,856.5C 61.6214,854.979 63.1214,852.979 64,850.5C 64.3534,851.672 64.1868,852.838 63.5,854C 63.8919,855.011 64.5585,855.511 65.5,855.5C 64.2519,857.459 62.5852,858.959 60.5,860C 63.1977,860.065 65.3644,858.898 67,856.5C 67.6172,857.449 67.4506,858.282 66.5,859C 67.1667,859.333 67.8333,859.667 68.5,860C 66.3295,861.586 63.9962,862.92 61.5,864C 66.3306,863.829 70.1639,861.663 73,857.5C 73.1626,859.387 72.3293,860.887 70.5,862C 71.1667,862.333 71.8333,862.667 72.5,863C 70.9991,864.252 69.3325,865.252 67.5,866C 69.2889,866.52 70.9556,866.187 72.5,865C 74.9774,863.135 77.3108,861.468 79.5,860C 78.7433,861.512 77.7433,862.846 76.5,864C 78.7516,863.95 80.4182,862.784 81.5,860.5C 83.7236,861.081 84.557,862.414 84,864.5C 82.5905,865.787 81.0905,866.954 79.5,868C 80.5,868.333 81.5,868.667 82.5,869C 80.9336,869.608 79.6002,870.442 78.5,871.5 Z"/></g>
<g><path style="opacity:1" fill="#fefefe" d="M -0.5,854.5 C 22.4922,863.489 45.8256,871.656 69.5,879C 129.808,896.732 191.142,902.232 253.5,895.5C 299.767,915.256 347.767,928.922 397.5,936.5C 336.808,962.559 273.808,969.726 208.5,958C 175.832,951.583 144.165,941.917 113.5,929C 73.7826,911.314 35.7826,890.814 -0.5,867.5C -0.5,863.167 -0.5,858.833 -0.5,854.5 Z"/></g>
<g><path style="opacity:1" fill="#cae2f2" d="M -0.5,808.5 C 21.5276,825.527 45.5276,839.527 71.5,850.5C 71.8586,852.485 72.692,853.151 74,852.5C 75.6667,854.167 77.3333,855.833 79,857.5C 80.016,856.366 80.6827,856.699 81,858.5C 81.3333,857.833 81.6667,857.167 82,856.5C 82.6667,857.833 83.3333,857.833 84,856.5C 84.9147,857.328 85.5814,858.328 86,859.5C 86.3333,859.167 86.6667,858.833 87,858.5C 88.6667,859.5 90.3333,860.5 92,861.5C 92.3333,861.167 92.6667,860.833 93,860.5C 94.2515,862.001 95.2515,863.668 96,865.5C 96.3333,864.833 96.6667,864.167 97,863.5C 97.8403,866.464 98.8403,866.797 100,864.5C 100.923,865.759 101.757,867.092 102.5,868.5C 103.983,866.054 105.149,866.388 106,869.5C 106.333,868.833 106.667,868.167 107,867.5C 107.833,868.5 108.667,869.5 109.5,870.5C 110.906,869.332 112.072,869.665 113,871.5C 113.333,870.833 113.667,870.167 114,869.5C 115.385,870.551 116.385,871.884 117,873.5C 117.333,872.5 117.667,871.5 118,870.5C 119.008,870.982 120.175,871.148 121.5,871C 123.586,874.537 126.252,875.371 129.5,873.5C 132.19,875.356 134.356,877.689 136,880.5C 136.492,879.451 136.326,878.451 135.5,877.5C 136.002,876.479 136.668,876.312 137.5,877C 139.422,878.42 140.755,880.253 141.5,882.5C 141.833,881.167 142.167,879.833 142.5,878.5C 144.167,879.833 145.833,881.167 147.5,882.5C 147.833,882.333 148.167,882.167 148.5,882C 144.296,878.612 144.629,877.945 149.5,880C 151.401,882.613 153.735,884.28 156.5,885C 155.167,883.667 153.833,882.333 152.5,881C 156.608,881.721 160.275,883.554 163.5,886.5C 163.833,886.333 164.167,886.167 164.5,886C 163.5,885 162.5,884 161.5,883C 166.18,883.841 170.18,886.008 173.5,889.5C 158.046,888.727 142.712,886.894 127.5,884C 129.762,883.299 130.762,882.132 130.5,880.5C 127.961,883.04 124.961,883.874 121.5,883C 122.672,882.581 123.672,881.915 124.5,881C 124.167,880.833 123.833,880.667 123.5,880.5C 118.881,883.028 115.214,882.695 112.5,879.5C 110.902,880.485 109.235,880.651 107.5,880C 109.595,879.444 109.762,878.944 108,878.5C 104.813,879.587 101.647,879.42 98.5,878C 99.8333,877.333 101.167,876.667 102.5,876C 103.696,875.346 103.696,874.846 102.5,874.5C 100.028,876.251 97.361,877.085 94.5,877C 95.8333,876.333 97.1667,875.667 98.5,875C 99.6956,874.346 99.6956,873.846 98.5,873.5C 96.3932,874.637 94.2265,875.637 92,876.5C 87.8111,875.411 83.6445,874.244 79.5,873C 81.9316,871.913 81.5983,871.413 78.5,871.5C 79.6002,870.442 80.9336,869.608 82.5,869C 81.5,868.667 80.5,868.333 79.5,868C 81.0905,866.954 82.5905,865.787 84,864.5C 84.557,862.414 83.7236,861.081 81.5,860.5C 80.4182,862.784 78.7516,863.95 76.5,864C 77.7433,862.846 78.7433,861.512 79.5,860C 77.3108,861.468 74.9774,863.135 72.5,865C 70.9556,866.187 69.2889,866.52 67.5,866C 69.3325,865.252 70.9991,864.252 72.5,863C 71.8333,862.667 71.1667,862.333 70.5,862C 72.3293,860.887 73.1626,859.387 73,857.5C 70.1639,861.663 66.3306,863.829 61.5,864C 63.9962,862.92 66.3295,861.586 68.5,860C 67.8333,859.667 67.1667,859.333 66.5,859C 67.4506,858.282 67.6172,857.449 67,856.5C 65.3644,858.898 63.1977,860.065 60.5,860C 62.5852,858.959 64.2519,857.459 65.5,855.5C 64.5585,855.511 63.8919,855.011 63.5,854C 64.1868,852.838 64.3534,851.672 64,850.5C 63.1214,852.979 61.6214,854.979 59.5,856.5C 59.1667,856.333 58.8333,856.167 58.5,856C 61.0782,853.843 61.0782,852.677 58.5,852.5C 59.4279,851.232 59.5946,849.899 59,848.5C 58.4169,850.002 57.5836,851.335 56.5,852.5C 56.0894,851.738 55.9227,850.738 56,849.5C 55.3457,850.696 54.8457,850.696 54.5,849.5C 55.3256,848.549 55.4922,847.549 55,846.5C 53.9542,848.09 52.7875,849.59 51.5,851C 50.8333,851.667 50.1667,851.667 49.5,851C 50.6872,849.981 51.6872,848.814 52.5,847.5C 51.8333,847.167 51.1667,846.833 50.5,846.5C 51.3256,845.549 51.4922,844.549 51,843.5C 50,844.833 49,846.167 48,847.5C 47.6667,846.833 47.3333,846.167 47,845.5C 45.8867,847.329 44.3867,848.163 42.5,848C 44.019,846.649 45.3523,845.149 46.5,843.5C 45.2815,843.891 44.4482,843.224 44,841.5C 43.3333,842.167 42.6667,842.833 42,843.5C 42,842.167 42,840.833 42,839.5C 40.984,840.634 40.3173,840.301 40,838.5C 39.1597,841.464 38.1597,841.797 37,839.5C 35.3335,840.34 35.1669,839.84 36.5,838C 34.9194,837.293 33.4194,836.46 32,835.5C 31.6667,835.833 31.3333,836.167 31,836.5C 30.6827,834.699 30.016,834.366 29,835.5C 29.0773,834.262 28.9106,833.262 28.5,832.5C 27.4182,834.784 25.7516,835.95 23.5,836C 26.3562,834.571 26.8562,832.737 25,830.5C 24,830.5 23,830.5 22,830.5C 21.6827,828.699 21.016,828.366 20,829.5C 19.6827,827.699 19.016,827.366 18,828.5C 17.6258,827.584 17.1258,826.75 16.5,826C 12.1051,823.775 7.43845,821.108 2.5,818C 1.94979,815.842 0.949785,815.342 -0.5,816.5C -0.5,813.833 -0.5,811.167 -0.5,808.5 Z"/></g>
<g><path style="opacity:1" fill="#98daf8" d="M -0.5,867.5 C 35.7826,890.814 73.7826,911.314 113.5,929C 144.165,941.917 175.832,951.583 208.5,958C 273.808,969.726 336.808,962.559 397.5,936.5C 408.826,938.235 420.16,939.569 431.5,940.5C 322.833,997.681 212.833,1000.18 101.5,948C 65.6179,930.243 31.6179,909.743 -0.5,886.5C -0.5,880.167 -0.5,873.833 -0.5,867.5 Z"/></g>
<g><path style="opacity:1" fill="#469ad2" d="M 263.5,871.5 C 266.879,871.678 270.045,871.678 273,871.5C 274.959,873.526 275.793,875.692 275.5,878C 267.374,879.327 259.374,880.494 251.5,881.5C 246.516,879.674 241.849,877.341 237.5,874.5C 246.219,873.859 254.885,872.859 263.5,871.5 Z"/></g>
<g><path style="opacity:1" fill="#7eb8e0" d="M 351.5,865.5 C 324.811,875.923 297.144,883.09 268.5,887C 267.584,887.278 266.918,887.778 266.5,888.5C 262.749,887.027 259.083,885.36 255.5,883.5C 273.92,881.049 291.253,878.549 307.5,876C 306.167,875.667 304.833,875.333 303.5,875C 304,874.5 304.5,874 305,873.5C 306.533,873.944 308.033,874.277 309.5,874.5C 310.705,872.862 312.038,872.529 313.5,873.5C 315.115,872.846 316.782,872.346 318.5,872C 316.5,871.167 314.5,870.333 312.5,869.5C 315.106,868.348 317.773,868.182 320.5,869C 319.304,869.654 319.304,870.154 320.5,870.5C 325,869.499 329.667,869.499 334.5,870.5C 336.511,868.31 339.511,866.81 343.5,866C 346.146,865.503 348.813,865.336 351.5,865.5 Z"/></g>
<g><path style="opacity:1" fill="#94c4e5" d="M 142.5,874.5 C 169.831,880.528 197.498,883.194 225.5,882.5C 230.022,884.264 234.355,886.264 238.5,888.5C 235.531,887.671 232.531,887.505 229.5,888C 232.937,888.649 233.104,889.149 230,889.5C 222.277,887.875 214.443,887.042 206.5,887C 210.414,886.103 210.248,885.603 206,885.5C 203.826,885.787 201.659,886.12 199.5,886.5C 197.357,886.471 196.023,885.804 195.5,884.5C 193.025,886.159 190.858,885.826 189,883.5C 186.67,885.043 184.17,885.543 181.5,885C 182.167,884.667 182.833,884.333 183.5,884C 182.101,883.405 180.768,883.572 179.5,884.5C 179.167,883.833 178.833,883.167 178.5,882.5C 175.539,883.183 175.205,884.016 177.5,885C 175.711,885.52 174.044,885.187 172.5,884C 174.595,883.444 174.762,882.944 173,882.5C 169.339,883.285 165.839,882.619 162.5,880.5C 160.091,881.722 158.258,881.055 157,878.5C 154.667,878.5 152.333,878.5 150,878.5C 149.667,877.833 149.333,877.167 149,876.5C 147.732,876.616 146.398,876.949 145,877.5C 143.959,876.529 143.126,875.529 142.5,874.5 Z"/></g>
<g><path style="opacity:1" fill="#b6d7ed" d="M 71.5,850.5 C 78.4807,853.813 85.8141,856.313 93.5,858C 97.5197,860.034 101.52,862.034 105.5,864C 117.847,867.668 130.18,871.168 142.5,874.5C 143.126,875.529 143.959,876.529 145,877.5C 146.398,876.949 147.732,876.616 149,876.5C 149.333,877.167 149.667,877.833 150,878.5C 152.333,878.5 154.667,878.5 157,878.5C 158.258,881.055 160.091,881.722 162.5,880.5C 165.839,882.619 169.339,883.285 173,882.5C 174.762,882.944 174.595,883.444 172.5,884C 174.044,885.187 175.711,885.52 177.5,885C 175.205,884.016 175.539,883.183 178.5,882.5C 178.833,883.167 179.167,883.833 179.5,884.5C 180.768,883.572 182.101,883.405 183.5,884C 182.833,884.333 182.167,884.667 181.5,885C 184.17,885.543 186.67,885.043 189,883.5C 190.858,885.826 193.025,886.159 195.5,884.5C 196.023,885.804 197.357,886.471 199.5,886.5C 201.659,886.12 203.826,885.787 206,885.5C 210.248,885.603 210.414,886.103 206.5,887C 214.443,887.042 222.277,887.875 230,889.5C 233.104,889.149 232.937,888.649 229.5,888C 232.531,887.505 235.531,887.671 238.5,888.5C 239.492,888.328 240.158,888.662 240.5,889.5C 218.166,892.141 195.833,892.141 173.5,889.5C 170.18,886.008 166.18,883.841 161.5,883C 162.5,884 163.5,885 164.5,886C 164.167,886.167 163.833,886.333 163.5,886.5C 160.275,883.554 156.608,881.721 152.5,881C 153.833,882.333 155.167,883.667 156.5,885C 153.735,884.28 151.401,882.613 149.5,880C 144.629,877.945 144.296,878.612 148.5,882C 148.167,882.167 147.833,882.333 147.5,882.5C 145.833,881.167 144.167,879.833 142.5,878.5C 142.167,879.833 141.833,881.167 141.5,882.5C 140.755,880.253 139.422,878.42 137.5,877C 136.668,876.312 136.002,876.479 135.5,877.5C 136.326,878.451 136.492,879.451 136,880.5C 134.356,877.689 132.19,875.356 129.5,873.5C 126.252,875.371 123.586,874.537 121.5,871C 120.175,871.148 119.008,870.982 118,870.5C 117.667,871.5 117.333,872.5 117,873.5C 116.385,871.884 115.385,870.551 114,869.5C 113.667,870.167 113.333,870.833 113,871.5C 112.072,869.665 110.906,869.332 109.5,870.5C 108.667,869.5 107.833,868.5 107,867.5C 106.667,868.167 106.333,868.833 106,869.5C 105.149,866.388 103.983,866.054 102.5,868.5C 101.757,867.092 100.923,865.759 100,864.5C 98.8403,866.797 97.8403,866.464 97,863.5C 96.6667,864.167 96.3333,864.833 96,865.5C 95.2515,863.668 94.2515,862.001 93,860.5C 92.6667,860.833 92.3333,861.167 92,861.5C 90.3333,860.5 88.6667,859.5 87,858.5C 86.6667,858.833 86.3333,859.167 86,859.5C 85.5814,858.328 84.9147,857.328 84,856.5C 83.3333,857.833 82.6667,857.833 82,856.5C 81.6667,857.167 81.3333,857.833 81,858.5C 80.6827,856.699 80.016,856.366 79,857.5C 77.3333,855.833 75.6667,854.167 74,852.5C 72.692,853.151 71.8586,852.485 71.5,850.5 Z"/></g>
</svg>
